<svg xmlns="http://www.w3.org/2000/svg" viewBox="0 0 500 500"><g id="freepik--Floor--inject-22"><path id="freepik--floor--inject-22" d="M101.29,448.1c-81-46.78-81-122.62,0-169.41s212.39-46.78,293.42,0,81,122.63,0,169.41S182.31,494.88,101.29,448.1Z" style="fill:#f5f5f5"></path></g><g id="freepik--Shadows--inject-22"><ellipse id="freepik--Shadow--inject-22" cx="346.5" cy="401.96" rx="55.68" ry="32.15" style="fill:#e0e0e0"></ellipse><path id="freepik--shadow--inject-22" d="M201.19,439.49l47.31-27.31a3.92,3.92,0,0,1,3.52.14l36.87,21.29c1,.6,1.15,1.51.25,2L241.83,463a3.92,3.92,0,0,1-3.52-.15l-36.87-21.29C200.4,440.92,200.29,440,201.19,439.49Z" style="fill:#e0e0e0"></path><path id="freepik--shadow--inject-22" d="M293.21,316.78l-14.66-8.46a3.48,3.48,0,0,0-3.17,0l-184,106.22a1,1,0,0,0,0,1.84l14.8,8.61a3.45,3.45,0,0,0,3.16,0l31.14-18a14.8,14.8,0,0,0,1.37.91l23.85,13.77a23,23,0,0,0,21.13,0l46-26.57c3.42-2,5.38-4.91,5.38-8.07s-2-6.1-5.38-8.07l-22-12.69,82.34-47.65A1,1,0,0,0,293.21,316.78Z" style="fill:#e0e0e0"></path></g><g id="freepik--Device--inject-22"><g id="freepik--device--inject-22"><g id="freepik--Monitor--inject-22"><path d="M231.15,378.69l-23.84-13.76c-4.9-2.83-13.14-3.47-18.42-1.44l-14.15,5.44a81.2,81.2,0,0,0-17.59,10l-14.4,11.34a7.19,7.19,0,0,0-3.09,5.55c0,.54,0,2.73,0,3.29,0,2.19,1.33,4.32,3.91,5.81l23.84,13.76c4.9,2.83,12.83,2.83,17.73,0l46-26.56c2.46-1.42,3.67-3.28,3.66-5.14v-3.18C234.81,382,233.6,380.11,231.15,378.69Z" style="fill:#e6e6e6"></path><path d="M139.66,399.12c0,2.19,1.33,4.32,3.91,5.81l23.84,13.76a18.18,18.18,0,0,0,8.87,2.12v-3.4l-36.63-21.14C139.65,397.11,139.65,398.66,139.66,399.12Z" style="fill:#e0e0e0"></path><path d="M139.66,399.12c0,2.19,1.33,4.32,3.91,5.81l23.84,13.76a18.18,18.18,0,0,0,8.87,2.12v-3.4l-36.63-21.14C139.65,397.11,139.65,398.66,139.66,399.12Z" style="opacity:0.1"></path><path d="M188.89,363.49l-14.15,5.44a81.2,81.2,0,0,0-17.59,10l-14.4,11.34c-4.44,3.49-4.07,8.62.82,11.45l23.84,13.76c4.9,2.83,12.83,2.83,17.73,0l46-26.56c4.89-2.83,4.89-7.41,0-10.24l-23.84-13.76C202.41,362.1,194.17,361.46,188.89,363.49Z" style="fill:#f0f0f0"></path><path d="M207.31,364.93c-4.9-2.83-13.14-3.47-18.42-1.44l-14.15,5.44a81.2,81.2,0,0,0-17.59,10l-14.4,11.34a7.19,7.19,0,0,0-3.09,5.55c0,.54,0,2.73,0,3.29,0,2.19,1.33,4.32,3.91,5.81l13.28,7.66v-3.18L220.6,372.6Z" style="opacity:0.1"></path><path d="M185,379.4c0-7,2.21-29.16,6.82-34.34L177,343.43c-7.26,7.67-16,26-21.21,36.56,0,0,4.33,1.77,9.68,4s12.78,2.21,16.61,0a5.16,5.16,0,0,0,2.86-4.56Z" style="fill:#e0e0e0"></path><path d="M185,379.4c0-7,2.21-29.16,6.82-34.34L177,343.43c-7.26,7.67-16,26-21.21,36.56,0,0,4.33,1.77,9.68,4s12.78,2.21,16.61,0a5.16,5.16,0,0,0,2.86-4.56Z" style="opacity:0.1"></path><path d="M182.21,345.56c2.86,1.18,6.85,1.18,8.9,0s2-3.49,0-5.15l-3.71-3a42.64,42.64,0,0,0-10.38,6S179.34,344.37,182.21,345.56Z" style="fill:#e0e0e0"></path><path d="M101.47,394.14a8.44,8.44,0,0,0,7.61-.14l178.7-103.19A8.65,8.65,0,0,0,291.7,284V118.89a7.37,7.37,0,0,0-11.28-6.51L101.72,215.56a8.67,8.67,0,0,0-3.92,6.8V387.48A8.41,8.41,0,0,0,101.47,394.14Z" style="fill:#455a64"></path><path d="M109.08,394l178.7-103.19a8.66,8.66,0,0,0,3.93-6.8V118.89c0-2.5-1.76-3.52-3.93-2.27L109.08,219.81a8.68,8.68,0,0,0-3.92,6.79V391.73C105.16,394.23,106.91,395.25,109.08,394Z" style="fill:#37474f"></path><path d="M105.16,378.38v13.35c0,2.5,1.75,3.52,3.92,2.27l178.7-103.19a8.66,8.66,0,0,0,3.93-6.8V270.66Z" style="fill:#ebebeb"></path><path d="M110.34,366V228.35a5.35,5.35,0,0,1,2.41-4.18L284.1,125.24c1.33-.77,2.41-.15,2.41,1.39V264.24a5.34,5.34,0,0,1-2.41,4.18L112.76,367.35C111.42,368.12,110.34,367.5,110.34,366Z" style="fill:#263238"></path><path d="M99,218.48l7.36,4.24a8.31,8.31,0,0,0-1.16,3.88V391.73c0,2.28,1.54,3.56,3.92,2.27a8.35,8.35,0,0,1-7.61.14A7.55,7.55,0,0,1,97.79,388V222.36A8.2,8.2,0,0,1,99,218.48Z" style="fill:#263238"></path><path d="M196.27,333.23l8.87-5.1c.8-.45,1.44-.13,1.44.73a3.08,3.08,0,0,1-1.44,2.39l-8.87,5.1c-.8.46-1.44.13-1.44-.73A3.08,3.08,0,0,1,196.27,333.23Z" style="fill:#7979CC"></path></g><g id="freepik--Window--inject-22"><path d="M119.29,352.27V234.4a4.56,4.56,0,0,1,2.06-3.58l154.13-89c1.15-.66,2.07-.12,2.07,1.19V260.85a4.57,4.57,0,0,1-2.07,3.58l-154.14,89C120.22,354.13,119.29,353.59,119.29,352.27Z" style="fill:#fafafa"></path><path d="M277.56,152.61V143c0-1.31-.92-1.85-2.07-1.19l-154.13,89a4.56,4.56,0,0,0-2.06,3.58V244Z" style="fill:#7979CC"></path><path d="M261.56,153.56a3.88,3.88,0,0,0-1.62,3.1c0,1.19.72,1.74,1.62,1.22a3.88,3.88,0,0,0,1.61-3.09C263.17,153.6,262.45,153.05,261.56,153.56Zm5.72-3.3a3.88,3.88,0,0,0-1.62,3.09c0,1.19.73,1.74,1.62,1.22a3.85,3.85,0,0,0,1.62-3.09C268.9,150.29,268.18,149.74,267.28,150.26ZM273,147a3.89,3.89,0,0,0-1.62,3.09c0,1.2.73,1.74,1.62,1.23a3.89,3.89,0,0,0,1.62-3.09C274.63,147,273.9,146.44,273,147Z" style="fill:#fff"></path></g></g></g><g id="freepik--Text--inject-22"><text transform="matrix(0.75, -0.43, 0, 1, 133.27, 287.67)" style="font-size:31.678760528564453px;fill:#7979CC;font-family:Rubik-Bold, Rubik;font-weight:700">SOFT<tspan x="83.63" y="0" style="letter-spacing:-0.041967465497602024em">W</tspan><tspan x="108.66" y="0" style="letter-spacing:-0.000035595814671418176em">ARE</tspan></text><text transform="matrix(0.75, -0.43, 0, 1, 132.13, 315.43)" style="font-size:28.24711036682129px;fill:#455a64;font-family:Rubik-Regular, Rubik">INT<tspan x="43.22" y="0" style="letter-spacing:-0.006986041155236746em">E</tspan><tspan x="59.74" y="0">GR</tspan><tspan x="97.45" y="0" style="letter-spacing:-0.07197618401652486em">A</tspan><tspan x="114.63" y="0">TION</tspan></text></g><g id="freepik--Character--inject-22"><g id="freepik--character--inject-22"><g id="freepik--Bottom--inject-22"><path d="M319.66,356.65c.49,10,1.18,23.47.38,26.63-.13.54,5.15,3.06,8.86,2.36s4.68-2,4.67-2.4c0-1.35,1.12-3.88,1.28-5.23,1-8.65,1.81-15.54,2.75-21.62Z" style="fill:#b16668"></path><path d="M378.93,361.41l-17-1.19c1.9,8.44,3.9,17.2,5.34,23.12a32.85,32.85,0,0,0,1.6,5.22c.87,3.81,10.07,4.14,11.82-2l-.47-5.21C379.91,376.55,379.36,368.58,378.93,361.41Z" style="fill:#b16668"></path><path d="M299.46,402.07a2.77,2.77,0,0,0,.94,2.6,16.29,16.29,0,0,0,11.79,2.93c5.84-.69,7.38-2,9.83-3.71s5.53-5.54,8.17-6.09c2.46-.51,5.38-1.29,6.4-2.58.67-.84.51-3.47.51-3.47Z" style="fill:#263238"></path><path d="M335,376.87a1,1,0,0,1,1,.79c.17.91.35,4.12.72,5.62a37.26,37.26,0,0,1,.29,9.6c-.34,1.69-5.42,2.69-8,3.62s-4.74,3.76-7.41,5.88a18.17,18.17,0,0,1-10.81,3.77c-4.5-.07-9.55-1.54-10.69-3.59-1.41-2.54-1.6-5,5.1-7.94,1.27-.56,5.77-4,7.24-5a35.71,35.71,0,0,0,4.36-3.6,23,23,0,0,0,1.72-1.7,5.53,5.53,0,0,0,.94-1.84,24.64,24.64,0,0,0,.47-3.75.58.58,0,0,1,.13-.32.62.62,0,0,1,.29-.18,8,8,0,0,1,3.27-.13,13.41,13.41,0,0,1,3.29.75,2.74,2.74,0,0,1,1.5,1,2.24,2.24,0,0,1,.28,1.22,10.55,10.55,0,0,0,0,1.26.69.69,0,0,0,.17.42c.22.23.58.05.78-.12a18.27,18.27,0,0,0,1.82-2.1c.32-.38,1.73-.61,2.13-.91a15.33,15.33,0,0,0,1.14-1.28C335.16,377.9,335,377.39,335,376.87Z" style="fill:#37474f"></path><path d="M321.59,402.38a16.3,16.3,0,0,0,3-2.65h0s-7,3-10.11.89c-2-1.39-1-3-1-3.57s-5-2.84-6.94-3.09h0a14.51,14.51,0,0,1-1.31.66c-6.19,2.54-6.37,4.9-5.73,7.45,1.14,2.05,5.43,4.16,11.24,4.21A18.66,18.66,0,0,0,321.59,402.38Z" style="fill:#455a64"></path><path d="M314,395.51c-4.17,1.59-2.4,2.36-1.24,2.54s7.26-4.59,11.55-7.85c4.47-3.41,7.75-7.36,9.42-8.61.62-.46,1.9-1.25,2.49-1.79-.1-.89-.18-1.71-.26-2.14a1.55,1.55,0,0,0-1-1.05l-.26,1.68a5,5,0,0,1-1.43.79,5.46,5.46,0,0,0-1.84,1.4,18.27,18.27,0,0,1-1.82,2.1C326,387.05,318.17,393.92,314,395.51Z" style="fill:#263238"></path><path d="M313.07,397.45a.43.43,0,0,0,.26-.09.4.4,0,0,0,.06-.56,10,10,0,0,0-7.57-3,.4.4,0,1,0,.08.8,9.23,9.23,0,0,1,6.85,2.7A.41.41,0,0,0,313.07,397.45Z" style="fill:#f0f0f0"></path><path d="M317.07,394.72a.42.42,0,0,0,.26-.08.4.4,0,0,0,.07-.57,10,10,0,0,0-7.49-3.17.41.41,0,0,0-.38.44.41.41,0,0,0,.44.37,9.21,9.21,0,0,1,6.78,2.85A.42.42,0,0,0,317.07,394.72Z" style="fill:#f0f0f0"></path><path d="M320.3,392a.39.39,0,0,0,.26-.09.4.4,0,0,0,.07-.57,10,10,0,0,0-7.57-3,.41.41,0,0,0-.37.44.4.4,0,0,0,.45.36,9.27,9.27,0,0,1,6.85,2.71A.46.46,0,0,0,320.3,392Z" style="fill:#f0f0f0"></path><path d="M323.28,389.7a.42.42,0,0,0,.26-.08.4.4,0,0,0,.09-.56,10,10,0,0,0-7.43-3.31.4.4,0,1,0,0,.8,9.25,9.25,0,0,1,6.73,3A.42.42,0,0,0,323.28,389.7Z" style="fill:#f0f0f0"></path><path d="M326.48,387.3a.42.42,0,0,0,.26-.08.39.39,0,0,0,.09-.56c-1.51-2.06-5.08-3.53-8.14-3.35a.4.4,0,0,0-.38.43.41.41,0,0,0,.43.38c2.76-.17,6.09,1.19,7.43,3A.39.39,0,0,0,326.48,387.3Z" style="fill:#f0f0f0"></path><path d="M369.27,409.38c.34,3.94,1,6.55,2.5,8.82s4.13,2.94,6.79,2.18,6-2.66,6.71-6.09a21.75,21.75,0,0,0-.26-9.41Z" style="fill:#263238"></path><path d="M380.21,381.35c.94.28,1.32,5.68,2.11,11,.84,5.68,1.89,7.37,2.63,12,.85,5.32.52,7.11-1.25,10.39s-8.31,6.63-11.7,2.1c-2.76-3.69-2.88-7.27-2.79-12.6a111.12,111.12,0,0,0-.39-12.69c-.33-4-2.5-7.73-1.56-8.2a15.12,15.12,0,0,0,.75,3,5.2,5.2,0,0,0,.61,1.46c.54.73.76-.49.75-.95,0-.79-.3-1.41.29-2.09a4.85,4.85,0,0,1,1.63-1,10.7,10.7,0,0,1,2-.63,21.58,21.58,0,0,1,4.25-.35,2,2,0,0,1,1.66.64,1.05,1.05,0,0,1,.17.41c.12.52.08,1.06.2,1.58,0,.15.1.52.25.61s.37,0,.37-.07S380.34,382.28,380.21,381.35Z" style="fill:#37474f"></path><path d="M384.68,402.52c.12.77.79,5.56-.57,6.51s-2.41-2.94-2.41-2.94-3.55-1-8.62,1.41c.29.82-.42,3.56-1.85,3s-2-5.77-2-5.84c-.07,5.11.11,8.55,2.79,12.14,3.39,4.53,9.92,1.18,11.7-2.1s2.1-5.07,1.25-10.39C384.87,403.81,384.78,403,384.68,402.52Z" style="fill:#455a64"></path><path d="M381.31,406.44c.07,1.93,1.78,1.22,2-1.5.28-4.08-.84-7.93-1-12.62-.79-5.29-1-10.91-2.11-11,.06.93,0,4.59,0,4.59.46,4,1.63,8.58,1.59,12.69C381.73,402.24,381.23,404.51,381.31,406.44Z" style="fill:#263238"></path><path d="M373.68,407.43c-.42-1.89-1.05-2.41-1.53-6s-2.64-9.95-3.51-13.82a44.26,44.26,0,0,0-1.38-4.28c-.68.35,0,2.57.65,5s1,3.86,1.43,6.16c1.07,4.56,1.35,9.43,2.05,12.06S374.09,409.31,373.68,407.43Z" style="fill:#263238"></path><path d="M373.24,407.53a.3.3,0,0,0,.15,0,13.09,13.09,0,0,1,8.48-1.12.4.4,0,0,0,.49-.3.4.4,0,0,0-.3-.49,13.62,13.62,0,0,0-9.07,1.2.41.41,0,0,0,.25.76Z" style="fill:#f0f0f0"></path><path d="M372,403.73a.37.37,0,0,0,.14,0,17.3,17.3,0,0,1,9.89-1.4.42.42,0,0,0,.48-.32.41.41,0,0,0-.32-.48A17.91,17.91,0,0,0,371.78,403a.42.42,0,0,0-.18.56A.42.42,0,0,0,372,403.73Z" style="fill:#f0f0f0"></path><path d="M382.52,399.14a.41.41,0,0,0,.07-.8c-5-1.53-11.43,1-11.64,1.08a.42.42,0,0,0-.15.56.41.41,0,0,0,.55.15s6.35-2.44,11-1A.33.33,0,0,0,382.52,399.14Z" style="fill:#f0f0f0"></path><path d="M381.63,395.71a.4.4,0,0,0,.33-.28.41.41,0,0,0-.26-.52c-5.5-1.79-11,1.35-11.19,1.47a.4.4,0,0,0-.12.56.41.41,0,0,0,.56.13s5.38-3.05,10.5-1.38A.37.37,0,0,0,381.63,395.71Z" style="fill:#f0f0f0"></path><path d="M381.17,391.51a.42.42,0,0,0,.34-.28.41.41,0,0,0-.26-.52c-5.15-1.76-11.05,1.46-11.26,1.58a.43.43,0,0,0-.14.57.42.42,0,0,0,.57.13c.05,0,5.78-3.14,10.57-1.5A.37.37,0,0,0,381.17,391.51Z" style="fill:#ebebeb"></path><path d="M343.35,293.71l-2.79,25.72s.41,8.21.15,15.58-3.34,28-4.84,35.89a16.32,16.32,0,0,1-16,.61s-2.36-42.86-2.71-53.22c-.47-13.76-.16-52.4.1-68.81l51-.56s.45,8.81,1.53,22,3.63,48.45,3.63,48.45c5.68,15.6,5.31,25.9,6.69,55.17a15.19,15.19,0,0,1-14.88,1.94s-8.33-28.64-11.55-40.27c-1.54-5.54-7.17-29.67-10.31-42.47" style="fill:#455a64"></path><path d="M323.63,275l-.3,20.16c.09,3.22-.22,10.28-.09,13.49s.05,5.36.21,9.76,1.05,29.26,1.16,35.71c-1.36-7.08-2.05-28.28-2.61-35.91-.2-6.91.08-13.71.41-23.08S323.18,281.4,323.63,275Z" style="fill:#37474f"></path><path d="M351.86,271.14c2.67,10.52,7.2,37.72,8.25,45s8.41,35.94,9.22,43.28c-1.39-7.26-9.58-35.74-10.7-43.07S353.62,284.47,351.86,271.14Z" style="fill:#37474f"></path><path d="M338.76,273.79l4.59,19.92-2.79,25.72.38-21.51-5-21.78a13.89,13.89,0,0,1-10.84-10.09C330,272.1,338.76,273.79,338.76,273.79Z" style="fill:#37474f"></path></g><g id="freepik--Top--inject-22"><path d="M318.73,192.6c-3.85,4.65-8,10.54-11.48,14.92l-5.75,7.22c-2.36-4.38-7.57-10.53-9.62-14s-3.82-7.49-4.21-8.09c-2.62-4.18-6.88-6.87-11.13-9.14-.73-.4-1.47-.78-2.2-1.16a8.24,8.24,0,0,1-1-.58c-.31-.21-.58-.39-1-.09a1.43,1.43,0,0,0-.44.89A4.06,4.06,0,0,0,273,185.7a19.61,19.61,0,0,0,2.49,2.24c.66.56-.29.78-.76.82-2.28.18-5.53-1.46-7.55-2.46a29.27,29.27,0,0,0-3.94-2,4.49,4.49,0,0,0-2.71-.1c-.6.18-1.08.55-.78,1.27a3.17,3.17,0,0,0,1,1.06,3.34,3.34,0,0,1,1.52,2.3,8.17,8.17,0,0,0,.21,2c.28.8,1,1.36,1.37,2.13a17.8,17.8,0,0,1,.48,2.11A6.4,6.4,0,0,0,266,197a20.43,20.43,0,0,0,4.42,3,22.48,22.48,0,0,0,5.69,2.24c1.44.39,3.46.46,4.77,2.56s3.22,6.27,5.95,13.35c2.38,6.16,5.62,13.4,10.42,17.45s10.05-1.88,12.92-5c1.93-2.08,13.45-14.23,13.45-14.23,2.85-11.72,3.17-19.4,2-27.16C325.58,189.21,322.09,188.56,318.73,192.6Z" style="fill:#b16668"></path><path d="M277,191.48a14.83,14.83,0,0,0,5.35,6.23,6.14,6.14,0,0,1-3.87-1.79A5.73,5.73,0,0,1,277,191.48Z" style="fill:#9a4a4d"></path><path d="M301.5,214.74a29.3,29.3,0,0,1,2.71,13.62c1.57-6.51.91-11.56-1.14-15.58Z" style="fill:#9a4a4d"></path><path d="M325.87,188.58c-4.39.86-5.18.17-12,9.42s-12.24,16.17-12.24,16.17-2.22-3.79-3.92-6.22c-1.36-1.95-2.93-5.52-4-4.45-3,5.33-10.08,6.75-10.08,6.75s-1.06.05.42,3.43c1.08,2.47,3.68,7.81,6.47,13.78s6.43,9.27,9.05,9.92,5.33-.8,9.55-4.87,14.94-15.82,14.94-15.82S329.83,194.44,325.87,188.58Z" style="fill:#37474f"></path><path d="M301.61,214.17A24.39,24.39,0,0,1,305.17,228c1.74-7,0-12.42-2.29-15.51Z" style="fill:#263238"></path><path d="M293.7,203.39l-2.48-3.75s0,1.9-3.7,4.45-5.81,2.15-5.81,2.15l1.91,4a12.79,12.79,0,0,0,5.85-1.88A8.46,8.46,0,0,0,293.7,203.39Z" style="fill:#263238"></path><path d="M367.17,189c-3.39-.73-7-1.38-13.15-2.71l0-.52-.46.43-1.86-.39-14.67.72-.58.09c.07-.3.12-.49.12-.49l.11-.75a14.82,14.82,0,0,0-1.33,1.42c-3,.48-9.06,1.46-9.52,1.74-6.55,3.17-7.72,14.12-8.53,29.84-.67,12.84-.49,39.56-.49,39.56s1.5,4.37,19,5.9c22.28,1.94,33.14-6.11,33.14-6.11-.7-7.87-.56-13.63-.64-19.17-.09-5.81,1.69-17.76,2.31-21A46.7,46.7,0,0,0,367.17,189Z" style="fill:#263238"></path><path d="M327,158.9l-.1-.14a13.31,13.31,0,0,1-1.4-2.7c-.8-1.85-2.5-7.44,1-7.71-.76-.82-1.87-2.46-.59-3.36,1.05-.74,2.65-.08,3.84-.11a5.37,5.37,0,0,1-1.26-1.65,4.26,4.26,0,0,1-.44-1.92c.64.13,1.23.4,1.86.54a16.77,16.77,0,0,0,4.85.09c1.81-.14,3.54-.76,5.35-.92a34.13,34.13,0,0,1,5.35,0c5.91.42,11.71,2.92,12.76,9,4.74,1.46,4.14,9.26,2.92,12.69-2.46,7-7.23,13-7.34,16.58l-1.49-1.11-7.47-5.62-9.67-7.25L331,162.16A20.2,20.2,0,0,1,327,158.9Z" style="fill:#263238"></path><path d="M327.42,175.92c.9,3.38,2.68,5.36,5.79,5.88a22.94,22.94,0,0,0,3.92.24l-.07,4.53c-2.16,3,0,9.08,1,10.47h0c3.89-5.54,13.29-6.58,16-10.44l.06-13.87s1.89,2.18,5.05.16a6.87,6.87,0,0,0,2.21-8.39c-1.53-3.3-4.67-2-5.64-1s-2.1,2.86-2.9,2.59a2.91,2.91,0,0,1-1.92-2,17.51,17.51,0,0,1-1-6.39,7.06,7.06,0,0,1-2.2-1.75,7.17,7.17,0,0,1-1.47-4.91c-6.72-2.17-15.32-1.38-18.14.76-1.64,2.83-1.52,7.23-1.65,13.23A41.28,41.28,0,0,0,327.42,175.92Z" style="fill:#b16668"></path><path d="M337.13,182c3.45-.17,10.85-1.84,12.71-3.75s2.69-5.84,2.69-5.84-.32,5-1.77,7.16-5.07,3.11-7.26,3.63-6.41,1-6.41,1Z" style="fill:#9a4a4d"></path><path d="M339.76,162.12a1.43,1.43,0,1,0,1.45-1.47A1.47,1.47,0,0,0,339.76,162.12Z" style="fill:#263238"></path><path d="M328.94,159.89l3.23-1.37a1.69,1.69,0,0,0-2.25-1A1.83,1.83,0,0,0,328.94,159.89Z" style="fill:#263238"></path><path d="M340.44,157.64l3,1.75a1.68,1.68,0,0,0-.58-2.37A1.84,1.84,0,0,0,340.44,157.64Z" style="fill:#263238"></path><path d="M329.33,162.27a1.42,1.42,0,1,0,2.84,0,1.42,1.42,0,1,0-2.84,0Z" style="fill:#263238"></path><polygon points="336.98 159.49 335.86 169.72 330.38 168.01 336.98 159.49" style="fill:#9a4a4d"></polygon><path d="M340.2,171.16a2.55,2.55,0,1,1-4.74,1.89Z" style="fill:#9a4a4d"></path><path d="M339.78,172.52a2.49,2.49,0,0,0-2.48,2.08,2.6,2.6,0,0,0,1.48-.12,2.56,2.56,0,0,0,1.55-1.88A3.31,3.31,0,0,0,339.78,172.52Z" style="fill:#ffa8a7"></path><path d="M338.08,197c1.71-1,5.27-4.42,6.92-2.27s2.84,4.63,4.07,4.28,5.81-3.44,7.39-6.72a13.39,13.39,0,0,0,1.29-5.19,13.69,13.69,0,0,1-1.73-2.66c-.68-1.38-.88-2.68-1.95-2.77v3.48s-.91,2-4.53,3.33C344.69,190.34,340.33,192.29,338.08,197Z" style="fill:#37474f"></path><path d="M338.08,197c-1-.93-1.53-3.68-3.19-3.23s-4.05,4.2-4.09,3.31,1.09-7.16,2.37-9,2.82-5.21,3.94-5.13l0,3.59a11.87,11.87,0,0,0-.64,4C336.64,192.1,337.89,195.59,338.08,197Z" style="fill:#37474f"></path><g id="freepik--Arm--inject-22"><g id="freepik--arm--inject-22"><path d="M370,277.22a3.21,3.21,0,0,0-.61.86.89.89,0,0,0,.17,1,1.18,1.18,0,0,0,.46.19,3.9,3.9,0,0,0,3.07-.82,8.72,8.72,0,0,0,2.1-2.5,2.24,2.24,0,0,1,.72-.83c1.42-.81.87,1.7.8,2.28a25.41,25.41,0,0,1-1.08,4.86c-.29,1.23-3.09,4.19-3.71,5.35s-.5,2.45.09,2.92,1.69-.36,3-1.87a30.21,30.21,0,0,0,2.8-3.17c.49-.85,1-1.7,1-1.7a17.54,17.54,0,0,1-1,3c-.47.85-2.32,3-2.87,4.08a2.26,2.26,0,0,0,.41,2.53c.38.37.61.94,2.38-1.11a31.67,31.67,0,0,0,2.45-3.11,2.83,2.83,0,0,0,2.72-1.08,28.36,28.36,0,0,0,2.66-4.5,3.89,3.89,0,0,0,2.23-2.15c.66-1.64,1.5-4.25,2.1-6.35s-.17-7.29,0-10.92c0-1.12.29-13.68.29-21.49,0-5.83.17-9.4-.72-12.35-2.11-7-2.87-9.15-6.11-18.77-2.09-6.21-3.75-10.65-5.06-13.61-2-4.56-4.25-6.71-11.13-8.71-3,3.67-4.22,12.68-.95,26.4,3.73,7.67,8.73,22,8.73,22s3.16,25.06,3.18,25.59a2.9,2.9,0,0,1-1,2.58c-.74.74-1.61,1.35-2.31,2.13-2.31,2.54-2.57,6.42-4.68,9.11Z" style="fill:#b16668"></path><path d="M380.29,289.16a18.47,18.47,0,0,0,2.43-4.42,22.82,22.82,0,0,0,1.34-4.85c-.51,1.6-1,3.19-1.65,4.73A37.38,37.38,0,0,1,380.29,289.16Z" style="fill:#9a4a4d"></path><path d="M385.67,283.58a9.16,9.16,0,0,0,1.14-2.25,11.49,11.49,0,0,0,.58-2.45c-.35.77-.61,1.56-.9,2.34Z" style="fill:#9a4a4d"></path><path d="M378.88,283.78a22.62,22.62,0,0,0,1.82-4,9.18,9.18,0,0,1-2.19,5.37Z" style="fill:#9a4a4d"></path></g><path d="M377.17,254.72l.66,5.34s.24,1.46,5.61,1.74,6.61-.75,6.61-.75l.09-5.2Z" style="fill:#263238"></path><path d="M367.17,189c6,1.64,6.84,2.12,8.83,4.18s3.54,5.78,7.63,17,5.95,18.13,6.73,20.46.62,10.55.69,15.5.36,8.87-.91,9.64c-3.32,1.54-11.15,1-13-1.13-1.34-1.38-1.37-3.71-2.11-9.4s-1-7.69-1-7.69L366,216.2S360.16,195.07,367.17,189Z" style="fill:#37474f"></path></g></g></g></g><g id="freepik--Chart--inject-22"><g id="freepik--chart--inject-22"><path d="M53,142.58a.43.43,0,0,1-.25-.07l-20.28-11.7a.5.5,0,0,1-.25-.44.48.48,0,0,1,.25-.43l77.18-44.56a.5.5,0,0,1,.5,0l20.31,11.73a.49.49,0,0,1,0,.86L53.24,142.51A.47.47,0,0,1,53,142.58ZM33.71,130.37,53,141.5l76.21-44L109.89,86.39Z" style="fill:#455a64"></path><path d="M115.44,198.9a.43.43,0,0,1-.25-.07l-24.61-14.2a.5.5,0,0,1-.25-.43V120.55a.5.5,0,0,1,.5-.5.5.5,0,0,1,.5.5v63.36L115.69,198a.5.5,0,0,1-.25.93Z" style="fill:#455a64"></path><circle cx="115.44" cy="198.4" r="2.58" style="fill:#455a64"></circle><polygon points="95.32 99.05 107.4 106.03 107.4 57.2 95.32 50.23 95.32 99.05" style="fill:#7979CC"></polygon><polygon points="119.48 50.23 107.4 57.2 107.4 106.03 119.48 99.05 119.48 50.23" style="fill:#7979CC"></polygon><polygon points="119.48 50.23 107.4 57.2 107.4 106.03 119.48 99.05 119.48 50.23" style="fill:#fff;opacity:0.30000000000000004"></polygon><polygon points="107.4 43.26 119.48 50.23 107.4 57.2 95.32 50.23 107.4 43.26" style="fill:#7979CC"></polygon><polygon points="107.4 43.26 119.48 50.23 107.4 57.2 95.32 50.23 107.4 43.26" style="fill:#fff;opacity:0.5"></polygon><polygon points="77.2 109.51 89.28 116.49 89.28 95.56 77.2 88.59 77.2 109.51" style="fill:#7979CC"></polygon><polygon points="101.36 88.59 89.28 95.56 89.28 116.49 101.36 109.51 101.36 88.59" style="fill:#7979CC"></polygon><polygon points="101.36 88.59 89.28 95.56 89.28 116.49 101.36 109.51 101.36 88.59" style="fill:#fff;opacity:0.30000000000000004"></polygon><polygon points="89.28 81.61 101.36 88.59 89.28 95.56 77.2 88.59 89.28 81.61" style="fill:#7979CC"></polygon><polygon points="89.28 81.61 101.36 88.59 89.28 95.56 77.2 88.59 89.28 81.61" style="fill:#fff;opacity:0.5"></polygon><polygon points="59.08 119.97 71.16 126.95 71.16 92.08 59.08 85.1 59.08 119.97" style="fill:#7979CC"></polygon><polygon points="83.24 85.1 71.16 92.08 71.16 126.95 83.24 119.97 83.24 85.1" style="fill:#7979CC"></polygon><polygon points="83.24 85.1 71.16 92.08 71.16 126.95 83.24 119.97 83.24 85.1" style="fill:#fff;opacity:0.30000000000000004"></polygon><polygon points="71.16 78.13 83.24 85.1 71.16 92.08 59.08 85.1 71.16 78.13" style="fill:#7979CC"></polygon><polygon points="71.16 78.13 83.24 85.1 71.16 92.08 59.08 85.1 71.16 78.13" style="fill:#fff;opacity:0.5"></polygon><polygon points="40.96 130.44 53.04 137.41 53.04 120.38 40.96 113.41 40.96 130.44" style="fill:#7979CC"></polygon><polygon points="65.12 113.41 53.04 120.38 53.04 137.41 65.12 130.44 65.12 113.41" style="fill:#7979CC"></polygon><polygon points="65.12 113.41 53.04 120.38 53.04 137.41 65.12 130.44 65.12 113.41" style="fill:#fff;opacity:0.30000000000000004"></polygon><polygon points="53.04 106.44 65.12 113.41 53.04 120.38 40.96 113.41 53.04 106.44" style="fill:#7979CC"></polygon><polygon points="53.04 106.44 65.12 113.41 53.04 120.38 40.96 113.41 53.04 106.44" style="fill:#fff;opacity:0.5"></polygon><path d="M99.19,26.6,93,28.86l.56,1.53,3.55-1.28L78,69.44,58.16,65.62,37.94,97.21l1.37.89L58.94,67.43l20,3.85L98.58,29.72l1.33,3.67,1.53-.55Z" style="fill:#7979CC"></path></g></g><g id="freepik--Profile--inject-22"><g id="freepik--profile--inject-22"><path d="M167.75,129.44a.45.45,0,0,1-.25-.07l-12.19-7a.52.52,0,0,1-.25-.44.5.5,0,0,1,.25-.43l36.56-21.11a.5.5,0,0,1,.5,0l12.19,7a.5.5,0,0,1,.25.43.49.49,0,0,1-.25.43L168,129.37A.45.45,0,0,1,167.75,129.44Zm-11.19-7.54,11.19,6.46,35.56-20.53-11.19-6.46Z" style="fill:#455a64"></path><path d="M201.47,149.14a.45.45,0,0,1-.25-.07l-14.47-8.34a.5.5,0,0,1-.25-.44V117.83a.5.5,0,0,1,.5-.5.5.5,0,0,1,.5.5V140l14.22,8.2a.51.51,0,0,1,.18.69A.5.5,0,0,1,201.47,149.14Z" style="fill:#455a64"></path><path d="M204,148.64a2.58,2.58,0,1,1-2.57-2.58A2.57,2.57,0,0,1,204,148.64Z" style="fill:#455a64"></path><path d="M167.75,124.25,197,107.38l-.48-4.21c-.3-2.66-1.36-4.52-2.89-5.4l-4.06-2.34c-1.52-.88-3.5-.78-5.63.45l-11.21,6.47c-4.29,2.48-7.92,8.78-8.53,14.79l-.47,4.76Z" style="fill:#263238"></path><path d="M196.48,103.17c-.3-2.66-1.36-4.52-2.89-5.4s-3.49-.78-5.63.46l-11.21,6.46c-4.29,2.48-7.92,8.79-8.52,14.8l-.48,4.76L197,107.38Z" style="fill:#455a64"></path><path d="M188.68,79.87c1.44.83,2.33,2.62,2.33,5.15a17.58,17.58,0,0,1-7.95,13.77c-2.2,1.27-4.18,1.39-5.62.55l-4-2.3c-1.44-.83-2.33-2.61-2.33-5.15a17.56,17.56,0,0,1,7.95-13.76c2.19-1.27,4.18-1.39,5.62-.56Z" style="fill:#263238"></path><path d="M183.06,98.79c-2.2,1.27-4.18,1.39-5.62.55s-2.33-2.61-2.33-5.14a17.58,17.58,0,0,1,7.95-13.77c2.19-1.27,4.18-1.39,5.62-.56S191,82.49,191,85A17.58,17.58,0,0,1,183.06,98.79Z" style="fill:#455a64"></path></g></g><g id="freepik--Cloud--inject-22"><g id="freepik--cloud--inject-22"><path d="M241.05,96.44a.43.43,0,0,1-.25-.07L224.55,87a.48.48,0,0,1-.25-.43.47.47,0,0,1,.25-.43l52.8-30.49a.5.5,0,0,1,.5,0L294.1,65a.48.48,0,0,1,.25.43.47.47,0,0,1-.25.43L241.3,96.37A.47.47,0,0,1,241.05,96.44ZM225.8,86.56l15.25,8.8,51.8-29.91-15.25-8.8Z" style="fill:#455a64"></path><path d="M268.28,110.51a.5.5,0,0,1-.5-.5V80.21a.51.51,0,0,1,.5-.5.5.5,0,0,1,.5.5V110A.5.5,0,0,1,268.28,110.51Z" style="fill:#455a64"></path><path d="M265.71,110a2.58,2.58,0,1,0,2.57-2.58A2.58,2.58,0,0,0,265.71,110Z" style="fill:#455a64"></path><g id="freepik--cloud--inject-22"><path d="M287.82,49h0l-.14-.08-.09,0-3.07-1.78V46.9c0-3.78-1.27-6.42-3.27-7.53h0L275.36,36h0c-1.62-.93-3.74-.85-6.06.49a13.84,13.84,0,0,0-2.92,2.32,6.17,6.17,0,0,0-1.28-1h0l-5.72-3.28h0c-2.09-1.38-4.89-1.36-8,.42-6.47,3.74-11.71,13.75-11.71,22.38a18.17,18.17,0,0,0,.21,2.85l-.8.47c-4.12,2.37-7.45,8.75-7.45,14.23h0c0,3,1,5.19,2.62,6.12h0l6,3.45h0a4.75,4.75,0,0,0,4.82-.37l10.83-6.26L284.78,61.1c2.47-1.43,4.47-5.25,4.47-8.54h0A4.07,4.07,0,0,0,287.82,49Z" style="fill:#7979CC;opacity:0.8"></path><path d="M287.82,49h0l-.14-.08-.09,0-3.07-1.78V46.9c0-3.78-1.27-6.42-3.27-7.53h0L275.36,36h0c-1.62-.93-3.74-.85-6.06.49a13.84,13.84,0,0,0-2.92,2.32,6.17,6.17,0,0,0-1.28-1h0l-5.72-3.28h0c-2.09-1.38-4.89-1.36-8,.42-6.47,3.74-11.71,13.75-11.71,22.38a18.17,18.17,0,0,0,.21,2.85l-.8.47c-4.12,2.37-7.45,8.75-7.45,14.23h0c0,3,1,5.19,2.62,6.12h0l6,3.45h0a4.75,4.75,0,0,0,4.82-.37l10.83-6.26L284.78,61.1c2.47-1.43,4.47-5.25,4.47-8.54h0A4.07,4.07,0,0,0,287.82,49Z" style="fill:#fff;opacity:0.2"></path><path d="M281.27,39.37h0c-1.61-.9-3.71-.8-6,.52a14.13,14.13,0,0,0-3.06,2.46l-5.42-3.14-.53-.31.13-.14a14.11,14.11,0,0,1,2.92-2.31c2.32-1.34,4.44-1.42,6.06-.49h0Z" style="fill:#fff;opacity:0.35000000000000003"></path><path d="M266.38,38.76c.14.15.27.29.4.45l-.53-.31Z" style="fill:#fff;opacity:0.8"></path><path d="M265,37.67h0c-2-1.13-4.69-1-7.57.66a22.36,22.36,0,0,0-7.67,8.25l-6-3.44a22.36,22.36,0,0,1,7.67-8.25c3.08-1.78,5.87-1.8,8-.42h0Z" style="fill:#fff;opacity:0.35000000000000003"></path><path d="M245.9,63.57l-.81.46c-2.79,1.61-5.22,5.06-6.5,8.82l-6-3.44a18.16,18.16,0,0,1,4.85-7.63l2.45-1.66Z" style="fill:#fff;opacity:0.35000000000000003"></path><path d="M284.78,49.18l-.43.24a18,18,0,0,0,.18-2.52c0-6.83-4.15-10-9.26-7a17.76,17.76,0,0,0-6.18,6.72c-.23-8.22-5.38-11.92-11.7-8.27-6.47,3.73-11.71,13.75-11.71,22.37a18.17,18.17,0,0,0,.21,2.85l-.8.47c-4.12,2.38-7.45,8.75-7.45,14.23h0c0,5.49,3.33,8.13,7.45,5.76l10.83-6.26h0L284.78,61.1c2.47-1.43,4.47-5.25,4.47-8.54h0C289.25,49.27,287.25,47.75,284.78,49.18Z" style="fill:#7979CC"></path><path d="M284.78,49.18l-.43.24a18,18,0,0,0,.18-2.52c0-6.83-4.15-10-9.26-7a17.76,17.76,0,0,0-6.18,6.72c-.23-8.22-5.38-11.92-11.7-8.27-6.47,3.73-11.71,13.75-11.71,22.37a18.17,18.17,0,0,0,.21,2.85l-.8.47c-4.12,2.38-7.45,8.75-7.45,14.23h0c0,5.49,3.33,8.13,7.45,5.76l10.83-6.26h0L284.78,61.1c2.47-1.43,4.47-5.25,4.47-8.54h0C289.25,49.27,287.25,47.75,284.78,49.18Z" style="fill:#fff;opacity:0.7000000000000001"></path><path d="M242.18,83.36c-1.83,0-3-2-3-5.1,0-4.9,3.07-10.82,6.69-12.91l.81-.46a1.53,1.53,0,0,0,.74-1.57h0a16.78,16.78,0,0,1-.19-2.61c0-8.12,4.91-17.57,10.94-21.05a7.86,7.86,0,0,1,3.89-1.2c3.26,0,5.38,3.14,5.52,8.19h0a1.53,1.53,0,0,0,2.86.71h0A16.37,16.37,0,0,1,276,41.21a5.92,5.92,0,0,1,2.92-.9c2.46,0,4.06,2.58,4.06,6.59a17.14,17.14,0,0,1-.17,2.32h0a1.53,1.53,0,0,0,2.28,1.53l.43-.25a2.06,2.06,0,0,1,1-.33c.8,0,1.17,1.2,1.17,2.39,0,2.75-1.7,6.06-3.71,7.22l-39.7,22.91a4.3,4.3,0,0,1-2.14.67Z" style="fill:#fff;opacity:0.7000000000000001"></path><polygon points="261.36 74.62 261.36 65.24 257.29 67.59 265.42 53.51 273.54 58.2 269.48 60.55 269.48 69.93 261.36 74.62" style="fill:#7979CC"></polygon></g></g></g><g id="freepik--Internet--inject-22"><g id="freepik--internet--inject-22"><path d="M406.62,123.78a.55.55,0,0,1-.25-.07L369.81,102.6a.49.49,0,0,1,0-.86l12.19-7a.5.5,0,0,1,.5,0l36.55,21.11a.49.49,0,0,1,0,.86l-12.18,7A.59.59,0,0,1,406.62,123.78Zm-35.56-21.61,35.56,20.53,11.18-6.46L382.25,95.71Z" style="fill:#455a64"></path><path d="M376.72,160.82a.51.51,0,0,1-.44-.25.52.52,0,0,1,.19-.69l14.21-8.2V114.37a.5.5,0,0,1,.5-.5.5.5,0,0,1,.5.5V152a.48.48,0,0,1-.25.43L377,160.75A.47.47,0,0,1,376.72,160.82Z" style="fill:#455a64"></path><circle cx="376.72" cy="160.32" r="2.58" style="fill:#455a64"></circle><g id="freepik--WiFi--inject-22"><path d="M392.07,87.14A3.78,3.78,0,0,1,396,87c3.8,1.73,7.31,7.62,7.84,13.16.32,3.29-.49,5.71-2,6.77-.65.46-3.22,2.29-3.9,2.76a3.79,3.79,0,0,1-3.89.11c-3.8-1.73-7.31-7.62-7.84-13.16-.31-3.27.48-5.68,2-6.75Z" style="fill:#37474f"></path><path d="M378.6,71.34a14.53,14.53,0,0,0-5.1,7.59c-.54,1.67.07,4.34,1.43,6.3l0,0c1.3,1.88,2.89,2.57,3.89,1.88l4.64-3.29a2.06,2.06,0,0,0,.74-1.11,12.32,12.32,0,0,1,1.57-3.3,9.62,9.62,0,0,1,6.07.89c5.8,2.64,9.95,8.19,13.17,16.38,1.16,3,3.52,4.66,4.9,3.6h0c1.1-.84,3.33-2.27,4.62-3.26h0c1.1-.84,1.23-3.18.3-5.53-4.58-11.57-11-20.07-19.28-23.83-4.83-2.2-9-1.91-12.27.35Z" style="fill:#37474f"></path><path d="M364.63,61.93a21.06,21.06,0,0,1,7.18-9.25c.79-.57,4.18-2.84,5-3.34,5.18-3.18,15.21-4.51,22.82-.68,12.47,6.27,20.94,15,27,31.89,1.49,4.12.32,6.21-.85,7.13l0,0c-1.33,1-3.43,2.34-4.6,3.26h0c-1.33,1-3.56-.53-4.81-3.36-6.12-13.82-13.75-21.87-23.78-26.45-5.17-2.36-9.83-2.52-13.67-.86a19.74,19.74,0,0,0-3.74,5.9,2,2,0,0,1-.7.92l-4.62,3.26c-1,.72-2.58.06-3.89-1.82C364.45,66.43,363.93,63.59,364.63,61.93Z" style="fill:#37474f"></path><path d="M386.19,96.66c.53,5.54,4,11.43,7.84,13.16s6.44-1.36,5.91-6.89-4-11.43-7.84-13.16S385.66,91.12,386.19,96.66Z" style="fill:#455a64"></path><path d="M373.5,78.93c-.54,1.67.07,4.34,1.43,6.3l0,0c1.72,2.5,4,2.89,4.64.75,1.85-5.87,6.45-8.34,12.27-5.68S401.81,88.51,405,96.7c1.16,3,2.72,4.93,4.9,3.6h0c1.83-1.29,1.75-3.53,1-5.93-3.55-11-8.67-19-20-23.42C382.5,67.65,376.18,70.66,373.5,78.93Z" style="fill:#455a64"></path><path d="M364.63,61.93c-.7,1.66-.18,4.5,1.29,6.63h0c1.67,2.41,3.78,2.8,4.58.92,3.9-9.26,12-12.89,22-8.32s17.66,12.63,23.78,26.45c1.25,2.83,3.11,4.4,4.81,3.36h0c2.37-1.67,1.56-5,.57-7.57-7.73-19.84-20-28.46-30.09-31.61C378.73,47.78,369.42,50.64,364.63,61.93Z" style="fill:#455a64"></path></g></g></g><g id="freepik--Search--inject-22"><g id="freepik--search--inject-22"><path d="M465.39,199a.43.43,0,0,1-.25-.07l-36.56-21.11a.49.49,0,0,1-.25-.43.5.5,0,0,1,.25-.43l12.19-7a.5.5,0,0,1,.5,0l36.55,21.11a.48.48,0,0,1,.25.43.5.5,0,0,1-.25.44l-12.18,7A.47.47,0,0,1,465.39,199Zm-35.56-21.61L465.39,198l11.18-6.46L441,171Z" style="fill:#455a64"></path><path d="M406.42,240.89a.5.5,0,0,1-.43-.25.51.51,0,0,1,.18-.69l43.28-25V189.62a.5.5,0,0,1,.5-.5.5.5,0,0,1,.5.5v25.64a.5.5,0,0,1-.25.44l-43.53,25.12A.47.47,0,0,1,406.42,240.89Z" style="fill:#455a64"></path><circle cx="406.42" cy="240.39" r="2.58" style="fill:#455a64"></circle><g id="freepik--Glass--inject-22"><path d="M465.73,189.27h0l-8.66-16.43h0l0,0h0a1.55,1.55,0,0,1,.14-1.52,4.84,4.84,0,0,1,3.78-2.23,1.51,1.51,0,0,1,1.42.63l10.29,15.39h0a4.07,4.07,0,1,1-7,4.2Z" style="fill:#455a64"></path><path d="M462.4,169.68l10.29,15.39a4.07,4.07,0,0,1-3.09,6.26c1.32-.33,2.43-2.55.86-5.27s-7.85-12.26-10.56-16.83a3.76,3.76,0,0,1,1.08-.18A1.51,1.51,0,0,1,462.4,169.68Z" style="fill:#37474f"></path><path d="M457.21,171.27a4.83,4.83,0,0,1,3.78-2.22,1.53,1.53,0,0,1,1.39.59l1.06,1.59a1.56,1.56,0,0,1-.12,1.65,5,5,0,0,1-3.89,2.29,1.54,1.54,0,0,1-1.49-.69l-.89-1.67A1.57,1.57,0,0,1,457.21,171.27Z" style="fill:#7979CC"></path><path d="M457.21,171.27c-.69,1.22-.12,2.19,1.28,2.18a4.86,4.86,0,0,0,3.78-2.22c.69-1.22.11-2.19-1.28-2.18A4.83,4.83,0,0,0,457.21,171.27Z" style="fill:#7979CC"></path><path d="M457.21,171.27c-.69,1.22-.12,2.19,1.28,2.18a4.86,4.86,0,0,0,3.78-2.22c.69-1.22.11-2.19-1.28-2.18A4.83,4.83,0,0,0,457.21,171.27Z" style="fill:#fff;opacity:0.30000000000000004"></path><path d="M457,163.87a3.18,3.18,0,0,0-2.5,1.47,1,1,0,0,0-.1,1h0l3.41,5.76h0a1,1,0,0,0,.94.41,3.21,3.21,0,0,0,2.5-1.48,1,1,0,0,0,.09-1h0l-3.42-5.77h0A1,1,0,0,0,457,163.87Z" style="fill:#37474f"></path><path d="M457.91,164.29a1,1,0,0,0-.94-.42,2.76,2.76,0,0,0-1.09.26l4.61,7.76a2.53,2.53,0,0,0,.75-.82,1,1,0,0,0,.09-1l-3.42-5.77Z" style="fill:#263238"></path><path d="M454.42,167.36l5-2.88c2.71-1.57,4.39-4.93,4.39-9.71,0-9.56-6.71-21.18-15-26-4.14-2.39-7.89-2.62-10.6-1l-5,2.88h0c-2.71,1.57-4.39,4.93-4.39,9.71,0,9.56,6.71,21.18,15,26,4.14,2.39,7.89,2.62,10.6,1.05Zm-20.17-34.94c2.17-1.25,5.2-.88,8.55,1.05a31.16,31.16,0,0,1,14,24.19c0,3.86-1.19,6.67-3.36,7.93s-5.21.88-8.55-1.05a31.13,31.13,0,0,1-14-24.19C430.88,136.49,432.08,133.67,434.25,132.42Z" style="fill:#7979CC"></path><path d="M454.42,167.36l5-2.88c2.71-1.57,4.39-4.93,4.39-9.71,0-9.56-6.71-21.18-15-26-4.14-2.39-7.89-2.62-10.6-1l-5,2.88h0c-2.71,1.57-4.39,4.93-4.39,9.71,0,9.56,6.71,21.18,15,26,4.14,2.39,7.89,2.62,10.6,1.05Zm-20.17-34.94c2.17-1.25,5.2-.88,8.55,1.05a31.16,31.16,0,0,1,14,24.19c0,3.86-1.19,6.67-3.36,7.93s-5.21.88-8.55-1.05a31.13,31.13,0,0,1-14-24.19C430.88,136.49,432.08,133.67,434.25,132.42Z" style="fill:#fff;opacity:0.30000000000000004"></path><path d="M432,134.86a5.78,5.78,0,0,1,2.24-2.44c2.17-1.25,5.2-.88,8.55,1.05a22.69,22.69,0,0,1,4.5,3.48l6.83-3.95a25.21,25.21,0,0,0-5.31-4.19c-4.14-2.39-7.89-2.62-10.6-1l-5,2.88a7.92,7.92,0,0,0-3,3.28Z" style="fill:#7979CC;opacity:0.4"></path><path d="M454.42,167.36h0l5-2.88c2.71-1.57,4.39-4.93,4.39-9.71a23.08,23.08,0,0,0-.37-4l-6.9,3.95a21.34,21.34,0,0,1,.22,2.94c0,3.86-1.19,6.67-3.36,7.93a5.72,5.72,0,0,1-2.44.71l-.36,2A7.67,7.67,0,0,0,454.42,167.36Z" style="fill:#fff;opacity:0.30000000000000004"></path><path d="M428.83,140.35c0,9.56,6.71,21.18,15,26s15,.91,15-8.65-6.71-21.19-15-26S428.83,130.79,428.83,140.35Zm14-6.88a31.13,31.13,0,0,1,14,24.19c0,3.86-1.2,6.67-3.37,7.93s-5.2.88-8.55-1.05a31.16,31.16,0,0,1-14-24.19c0-3.86,1.2-6.68,3.37-7.93S439.45,131.54,442.79,133.47Z" style="fill:#7979CC"></path><g style="opacity:0.5"><path d="M428.83,140.35c0,9.56,6.71,21.18,15,26s15,.91,15-8.65-6.71-21.19-15-26S428.83,130.79,428.83,140.35Zm14-6.88a31.13,31.13,0,0,1,14,24.19c0,3.86-1.2,6.67-3.37,7.93s-5.2.88-8.55-1.05a31.16,31.16,0,0,1-14-24.19c0-3.86,1.2-6.68,3.37-7.93S439.45,131.54,442.79,133.47Z" style="fill:#fff"></path></g><path d="M448.18,168.12a9.32,9.32,0,0,0,4.72,0,7.4,7.4,0,0,0,3.86-2.71,11.06,11.06,0,0,0,1.86-4.36,17.25,17.25,0,0,0,.3-2.37c0-.4,0-.79,0-1.19l-.05-1.19a11.93,11.93,0,0,0-.1-1.19l-.15-1.18-.23-1.17-.11-.58-.15-.58a35.12,35.12,0,0,0-9.4-16.28c-.14-.13-.28-.28-.43-.41l-.44-.39-.9-.79-1-.71a10.7,10.7,0,0,0-1-.69l-1-.64c-.34-.21-.69-.39-1-.57a17.68,17.68,0,0,0-2.2-.93,11,11,0,0,0-4.72-.57,7.47,7.47,0,0,0-4.27,2,9.34,9.34,0,0,0-2.38,4.07,16.51,16.51,0,0,0-.61,4.69,15.94,15.94,0,0,1,.69-4.66,9.16,9.16,0,0,1,2.41-4,7.26,7.26,0,0,1,4.19-1.9,10.67,10.67,0,0,1,4.61.6,18.08,18.08,0,0,1,4.17,2.14,10.45,10.45,0,0,1,1,.68c.31.24.63.47.93.71l.89.78.44.39c.15.13.28.27.42.41a35.35,35.35,0,0,1,9.32,16.14l.15.57.11.57.23,1.16c.06.39.1.78.15,1.17a8.92,8.92,0,0,1,.11,1.17,17.91,17.91,0,0,1-.24,4.68,10.62,10.62,0,0,1-1.78,4.29,7.27,7.27,0,0,1-3.74,2.68,9.39,9.39,0,0,1-4.65.1,16.23,16.23,0,0,1-4.38-1.74A16,16,0,0,0,448.18,168.12Z" style="fill:#fff;opacity:0.4"></path><path d="M434.24,132.42a5.81,5.81,0,0,1,2.92-.73,11.6,11.6,0,0,0-1.28,5.77,31.09,31.09,0,0,0,14,24.19,11.57,11.57,0,0,0,5.64,1.78,5.72,5.72,0,0,1-2.09,2.16c-2.16,1.25-5.2.88-8.55-1.05a31.16,31.16,0,0,1-14-24.19C430.88,136.49,432.07,133.67,434.24,132.42Z" style="fill:#7979CC"></path><path d="M434.24,132.42a5.81,5.81,0,0,1,2.92-.73,11.6,11.6,0,0,0-1.28,5.77,31.09,31.09,0,0,0,14,24.19,11.57,11.57,0,0,0,5.64,1.78,5.72,5.72,0,0,1-2.09,2.16c-2.16,1.25-5.2.88-8.55-1.05a31.16,31.16,0,0,1-14-24.19C430.88,136.49,432.07,133.67,434.24,132.42Z" style="fill:#fff;opacity:0.30000000000000004"></path><path d="M444.84,164.54c3.35,1.93,6.39,2.3,8.55,1.05a5.72,5.72,0,0,0,2.09-2.16,11.57,11.57,0,0,1-5.64-1.78,19.78,19.78,0,0,1-2.45-1.68c.67.55,2.6,2.3.1,2.7-3,.47-8.22-2.55-10.59-5.64h0A26.47,26.47,0,0,0,444.84,164.54Z" style="fill:#7979CC;opacity:0.4"></path><path d="M433.14,139a31.13,31.13,0,0,0,14,24.19c2.76,1.59,5.3,2.12,7.33,1.55,1.5-1.47,2.32-3.94,2.32-7.12a31.13,31.13,0,0,0-14-24.19c-2.75-1.59-5.3-2.12-7.33-1.56C434,133.38,433.14,135.86,433.14,139Z" style="fill:#fff;opacity:0.7000000000000001"></path></g></g></g><g id="freepik--speech-bubble--inject-22"><g id="freepik--speech-bubble--inject-22"><g id="freepik--speech-bubble--inject-22"><path d="M50.84,231.64l1-3.11c.54-2.51-9.71,3.41-10.25,5.92l3.3,8.89a1.44,1.44,0,0,0,.56.65c.72.45,3.39,1.95,3.63,2.1a1.44,1.44,0,0,0,2.11-.79l4.28-14.67C55.73,229.39,53.37,230.2,50.84,231.64Z" style="fill:#7979CC"></path><g style="opacity:0.2"><path d="M50.84,231.64l1-3.11c.54-2.51-9.71,3.41-10.25,5.92l3.3,8.89a1.44,1.44,0,0,0,.56.65c.72.45,3.39,1.95,3.63,2.1a1.44,1.44,0,0,0,2.11-.79l4.28-14.67C55.73,229.39,53.37,230.2,50.84,231.64Z" style="fill:#fff"></path></g><g id="freepik--speach-bubble--inject-22"><path d="M64.78,171.87l-39,22.49a2.91,2.91,0,0,0-1.32,2.28v46.18a2.88,2.88,0,0,0,1.33,2.27l2.41,1.36a2.92,2.92,0,0,0,2.64,0l39-22.48a2.91,2.91,0,0,0,1.32-2.28V175.49a2.88,2.88,0,0,0-1.33-2.27l-2.41-1.36A3,3,0,0,0,64.78,171.87Z" style="fill:#7979CC"></path><path d="M64.78,171.87l-39,22.49a2.91,2.91,0,0,0-1.32,2.28v46.18a2.88,2.88,0,0,0,1.33,2.27l2.41,1.36a2.92,2.92,0,0,0,2.64,0l39-22.48a2.91,2.91,0,0,0,1.32-2.28V175.49a2.88,2.88,0,0,0-1.33-2.27l-2.41-1.36A3,3,0,0,0,64.78,171.87Z" style="fill:#fff;opacity:0.2"></path><path d="M69.84,174.73l-39,22.49a2.91,2.91,0,0,0-1.32,2.28v46.18c0,.84.59,1.18,1.32.76l14.92-8.6,2.74,7.6a1.43,1.43,0,0,0,2.67-.14l3.64-12.68,15-8.66a2.91,2.91,0,0,0,1.32-2.28V175.49C71.16,174.65,70.57,174.31,69.84,174.73Z" style="fill:#7979CC"></path><path d="M69.84,174.73l-39,22.49a2.91,2.91,0,0,0-1.32,2.28v46.18c0,.84.59,1.18,1.32.76l14.92-8.6,2.74,7.6a1.43,1.43,0,0,0,2.67-.14l3.64-12.68,15-8.66a2.91,2.91,0,0,0,1.32-2.28V175.49C71.16,174.65,70.57,174.31,69.84,174.73Z" style="fill:#fff;opacity:0.4"></path><path d="M71.14,175.25c-.1-.66-.65-.9-1.3-.52l-39,22.48a2.87,2.87,0,0,0-.93,1l-5-2.91a2.6,2.6,0,0,1,.9-.93l39-22.49a2.92,2.92,0,0,1,2.64,0l2.41,1.36A2.93,2.93,0,0,1,71.14,175.25Z" style="fill:#fff;opacity:0.7000000000000001"></path></g></g><g id="freepik--Icon--inject-22"><path id="freepik--online-icon--inject-22" d="M58.74,192.88c-2.59-1.5-5.89-1.25-9.28.71-7.54,4.35-13.67,16.06-13.67,26.09,0,5.38,1.78,9.49,4.89,11.29a7.31,7.31,0,0,0,3.69,1A11.33,11.33,0,0,0,50,230.26c7.54-4.36,13.67-16.06,13.67-26.09C63.63,198.79,61.85,194.68,58.74,192.88ZM36.8,218.81A33.49,33.49,0,0,1,41.18,204a7,7,0,0,0,1.91.6,35.93,35.93,0,0,0-2.39,11.94Zm13.4-6.6,7.51-4.34a35.27,35.27,0,0,1-2.4,11.26,10.71,10.71,0,0,0-5.11,1.27Zm0-1.14v-8.16a22.29,22.29,0,0,0,5.39-4.72,16.34,16.34,0,0,1,2.14,8.54Zm0-9.32v-7.19a7.15,7.15,0,0,1,4.82,2.8A22.48,22.48,0,0,1,50.2,201.75Zm-1,.59a10.23,10.23,0,0,1-4.72,1.4,37.48,37.48,0,0,1,4.72-8.32Zm-5.11,2.38.26,0a10.83,10.83,0,0,0,4.85-1.3v8.2L41.7,216A35.08,35.08,0,0,1,44.11,204.72Zm5.11,8.05v8.17a22.16,22.16,0,0,0-5.4,4.73,16.5,16.5,0,0,1-2.13-8.55Zm0,9.33v7.2a7.18,7.18,0,0,1-4.82-2.8A22,22,0,0,1,49.22,222.1Zm1-.59a10.23,10.23,0,0,1,4.72-1.4,38.35,38.35,0,0,1-4.72,8.32Zm8.51-14.21L62.62,205a33.49,33.49,0,0,1-4.38,14.79,7.15,7.15,0,0,0-1.92-.6A35.68,35.68,0,0,0,58.71,207.3Zm3.93-3.41-4,2.28a16.83,16.83,0,0,0-2.44-8.79A32.9,32.9,0,0,0,58.6,194C61.12,195.67,62.58,199.23,62.64,203.89Zm-4.89-10.4a31.81,31.81,0,0,1-2.1,3.07,8.17,8.17,0,0,0-4.36-2.8,9.45,9.45,0,0,1,3.76-.86A6.3,6.3,0,0,1,57.75,193.49Zm-10.33,2.75a39.77,39.77,0,0,0-4,7.44,6,6,0,0,1-1.8-.52A27.68,27.68,0,0,1,47.42,196.24ZM36.78,220l3.94-2.28a16.84,16.84,0,0,0,2.44,8.8,33.17,33.17,0,0,0-2.34,3.39C38.3,228.18,36.84,224.62,36.78,220Zm4.89,10.4a33.1,33.1,0,0,1,2.1-3.07,8.15,8.15,0,0,0,4.34,2.8A7.77,7.77,0,0,1,41.67,230.36ZM52,227.62a39.59,39.59,0,0,0,4-7.45,6.21,6.21,0,0,1,1.8.52A27.56,27.56,0,0,1,52,227.62Z" style="fill:#fff"></path></g></g></g><g id="freepik--Gears--inject-22"><g id="freepik--Gear--inject-22"><path d="M400.08,284.08V292a1.85,1.85,0,0,0,.7,1.34l6.23,4.39a2.53,2.53,0,0,1,.87,1.32,42.46,42.46,0,0,0,1.58,5.29,1.31,1.31,0,0,1-.34,1.35l-3.51,3a1.07,1.07,0,0,0-.22,1.3l5,8.68a1.08,1.08,0,0,0,1.23.46l4.38-1.53a1.3,1.3,0,0,1,1.34.38,41.3,41.3,0,0,0,3.79,4,2.57,2.57,0,0,1,.71,1.41l.68,7.59a1.83,1.83,0,0,0,.81,1.27l6.82,3.94a.55.55,0,0,0,.56,0h0l5.13-3h0a.55.55,0,0,0,.26-.46l.39-3.85a1.56,1.56,0,0,1,.66.51l5,7.59a.92.92,0,0,0,1.2.28l3.35-1.93h0l6.16-3.54a.92.92,0,0,0,.36-1.19l-4.05-8.15a1.59,1.59,0,0,1-.1-.85l3.5,1.58a.58.58,0,0,0,.53,0h0l5.14-2.94h0a.57.57,0,0,0,.24-.51v-7.87a1.82,1.82,0,0,0-.7-1.34l-6.23-4.39a2.53,2.53,0,0,1-.87-1.32,42.46,42.46,0,0,0-1.58-5.29,1.33,1.33,0,0,1,.34-1.35l3.51-3a1.07,1.07,0,0,0,.22-1.3l-5-8.68a1.08,1.08,0,0,0-1.23-.46l-4.38,1.53a1.3,1.3,0,0,1-1.34-.38,42.46,42.46,0,0,0-3.78-4,2.51,2.51,0,0,1-.71-1.41l-.69-7.59a1.84,1.84,0,0,0-.81-1.28l-6.82-3.93a.56.56,0,0,0-.55,0h0l-5.14,2.95h0a.57.57,0,0,0-.26.46l-.39,3.85a1.56,1.56,0,0,1-.66-.51l-5-7.59a.93.93,0,0,0-1.21-.28l-5.11,2.93h0L405.7,272a.9.9,0,0,0-.36,1.18l4.05,8.16a1.5,1.5,0,0,1,.1.85l-3.5-1.58a.58.58,0,0,0-.53,0h0l-5.13,2.95h0A.56.56,0,0,0,400.08,284.08Zm36.29,32.21c-1.66.39-3.78-.07-6.26-1.51-6.37-3.67-11.53-12.61-11.53-20a10.5,10.5,0,0,1,1.5-6.1,9.14,9.14,0,0,1,6.67,1.39c6.36,3.67,11.52,12.6,11.52,19.95A9.45,9.45,0,0,1,436.37,316.29Z" style="fill:#7979CC"></path><path d="M400.08,284.08V292a1.85,1.85,0,0,0,.7,1.34l6.23,4.39a2.53,2.53,0,0,1,.87,1.32,42.46,42.46,0,0,0,1.58,5.29,1.31,1.31,0,0,1-.34,1.35l-3.51,3a1.07,1.07,0,0,0-.22,1.3l5,8.68a1.08,1.08,0,0,0,1.23.46l4.38-1.53a1.3,1.3,0,0,1,1.34.38,41.3,41.3,0,0,0,3.79,4,2.57,2.57,0,0,1,.71,1.41l.68,7.59a1.83,1.83,0,0,0,.81,1.27l6.82,3.94a.55.55,0,0,0,.56,0h0l5.13-3h0a.55.55,0,0,0,.26-.46l.39-3.85a1.56,1.56,0,0,1,.66.51l5,7.59a.92.92,0,0,0,1.2.28l3.35-1.93h0l6.16-3.54a.92.92,0,0,0,.36-1.19l-4.05-8.15a1.59,1.59,0,0,1-.1-.85l3.5,1.58a.58.58,0,0,0,.53,0h0l5.14-2.94h0a.57.57,0,0,0,.24-.51v-7.87a1.82,1.82,0,0,0-.7-1.34l-6.23-4.39a2.53,2.53,0,0,1-.87-1.32,42.46,42.46,0,0,0-1.58-5.29,1.33,1.33,0,0,1,.34-1.35l3.51-3a1.07,1.07,0,0,0,.22-1.3l-5-8.68a1.08,1.08,0,0,0-1.23-.46l-4.38,1.53a1.3,1.3,0,0,1-1.34-.38,42.46,42.46,0,0,0-3.78-4,2.51,2.51,0,0,1-.71-1.41l-.69-7.59a1.84,1.84,0,0,0-.81-1.28l-6.82-3.93a.56.56,0,0,0-.55,0h0l-5.14,2.95h0a.57.57,0,0,0-.26.46l-.39,3.85a1.56,1.56,0,0,1-.66-.51l-5-7.59a.93.93,0,0,0-1.21-.28l-5.11,2.93h0L405.7,272a.9.9,0,0,0-.36,1.18l4.05,8.16a1.5,1.5,0,0,1,.1.85l-3.5-1.58a.58.58,0,0,0-.53,0h0l-5.13,2.95h0A.56.56,0,0,0,400.08,284.08Zm36.29,32.21c-1.66.39-3.78-.07-6.26-1.51-6.37-3.67-11.53-12.61-11.53-20a10.5,10.5,0,0,1,1.5-6.1,9.14,9.14,0,0,1,6.67,1.39c6.36,3.67,11.52,12.6,11.52,19.95A9.45,9.45,0,0,1,436.37,316.29Z" style="fill:#fff;opacity:0.2"></path><path d="M444.21,324a1.66,1.66,0,0,0-.09,1.47l4.05,8.16a.92.92,0,0,1-.37,1.18l-1,.6,6.16-3.54a.92.92,0,0,0,.36-1.19l-4.05-8.15a1.54,1.54,0,0,1-.11-.86l-2.56-1.15a.71.71,0,0,0-1,.47A13.81,13.81,0,0,1,444.21,324Zm-8.36,9.29h0a.54.54,0,0,0,.26-.46l.39-3.85a1.56,1.56,0,0,0-.65-.14,14.07,14.07,0,0,1-3.29-.33.71.71,0,0,0-.91.64l-.66,6.62a.7.7,0,0,1-.21.44Z" style="opacity:0.1"></path><path d="M415.23,296.76c0,7.35,5.16,16.28,11.52,19.95,4,2.33,7.56,2,9.62-.42-1.65.4-3.77-.07-6.27-1.51-6.36-3.67-11.51-12.61-11.51-20a10.56,10.56,0,0,1,1.48-6.11C417.14,289.43,415.23,292.29,415.23,296.76Z" style="opacity:0.1"></path><path d="M410.19,269.43a.94.94,0,0,1,1.11.33l5,7.59a1.29,1.29,0,0,0,.33.33l5.14-2.95a1.31,1.31,0,0,1-.34-.32l-5-7.58a.91.91,0,0,0-1.21-.29Zm-9.87,14.14h0a.28.28,0,0,1,.18-.06.37.37,0,0,1,.21,0l.15.06,6.07,2.73a.49.49,0,0,0,.17.06.76.76,0,0,0,.37,0,.64.64,0,0,0,.2-.11l.09-.08a.92.92,0,0,0,.18-.32.58.58,0,0,1,.05-.14,13.74,13.74,0,0,1,1.3-2.87,1.7,1.7,0,0,0,.21-.61L406,280.63a.58.58,0,0,0-.53,0h0Zm22.5-13a.59.59,0,0,1,.52.07l6.82,3.94a1.76,1.76,0,0,1,.69.82l5.12-2.94a1.77,1.77,0,0,0-.68-.83l-6.82-3.93a.53.53,0,0,0-.55,0ZM446,308.64a2.62,2.62,0,0,0,.48.51l6.23,4.38a1.38,1.38,0,0,1,.42.47l5.12-2.94a1.76,1.76,0,0,0-.41-.48l-6.23-4.38a2.14,2.14,0,0,1-.48-.51Zm-3.72-21a1,1,0,0,1,.81.5l5,8.69a1,1,0,0,1,.11.64l5.13-2.95a1,1,0,0,0-.12-.64l-5-8.68a1.09,1.09,0,0,0-.87-.51Z" style="fill:#7979CC"></path><path d="M410.19,269.43a.94.94,0,0,1,1.11.33l5,7.59a1.29,1.29,0,0,0,.33.33l5.14-2.95a1.31,1.31,0,0,1-.34-.32l-5-7.58a.91.91,0,0,0-1.21-.29Zm-9.87,14.14h0a.28.28,0,0,1,.18-.06.37.37,0,0,1,.21,0l.15.06,6.07,2.73a.49.49,0,0,0,.17.06.76.76,0,0,0,.37,0,.64.64,0,0,0,.2-.11l.09-.08a.92.92,0,0,0,.18-.32.58.58,0,0,1,.05-.14,13.74,13.74,0,0,1,1.3-2.87,1.7,1.7,0,0,0,.21-.61L406,280.63a.58.58,0,0,0-.53,0h0Zm22.5-13a.59.59,0,0,1,.52.07l6.82,3.94a1.76,1.76,0,0,1,.69.82l5.12-2.94a1.77,1.77,0,0,0-.68-.83l-6.82-3.93a.53.53,0,0,0-.55,0ZM446,308.64a2.62,2.62,0,0,0,.48.51l6.23,4.38a1.38,1.38,0,0,1,.42.47l5.12-2.94a1.76,1.76,0,0,0-.41-.48l-6.23-4.38a2.14,2.14,0,0,1-.48-.51Zm-3.72-21a1,1,0,0,1,.81.5l5,8.69a1,1,0,0,1,.11.64l5.13-2.95a1,1,0,0,0-.12-.64l-5-8.68a1.09,1.09,0,0,0-.87-.51Z" style="fill:#fff;opacity:0.7000000000000001"></path><path d="M400.78,293.29l6.23,4.39a2.53,2.53,0,0,1,.87,1.32,42.46,42.46,0,0,0,1.58,5.29,1.31,1.31,0,0,1-.34,1.35l-3.51,3a1.07,1.07,0,0,0-.22,1.3l5,8.68a1.08,1.08,0,0,0,1.23.46l4.38-1.53a1.3,1.3,0,0,1,1.34.38,41.3,41.3,0,0,0,3.79,4,2.57,2.57,0,0,1,.71,1.41l.68,7.59a1.83,1.83,0,0,0,.81,1.27l6.82,3.94a.5.5,0,0,0,.82-.42l.67-6.62a.73.73,0,0,1,.91-.65,13.55,13.55,0,0,0,3.28.34,1.68,1.68,0,0,1,1.32.65l5,7.59a.92.92,0,0,0,1.2.28l4.39-2.54a.9.9,0,0,0,.36-1.18l-4-8.16a1.66,1.66,0,0,1,.09-1.47,13.81,13.81,0,0,0,1.35-3,.72.72,0,0,1,1-.47l6.07,2.74a.52.52,0,0,0,.78-.51v-7.87a1.82,1.82,0,0,0-.7-1.34l-6.23-4.39a2.53,2.53,0,0,1-.87-1.32,40.23,40.23,0,0,0-1.58-5.28,1.34,1.34,0,0,1,.34-1.36l3.52-3a1.08,1.08,0,0,0,.22-1.29l-5-8.69a1.07,1.07,0,0,0-1.23-.46l-4.37,1.53a1.28,1.28,0,0,1-1.34-.38,43.88,43.88,0,0,0-3.79-4,2.45,2.45,0,0,1-.71-1.41l-.69-7.59a1.8,1.8,0,0,0-.81-1.27l-6.82-3.94a.51.51,0,0,0-.82.42l-.67,6.62a.72.72,0,0,1-.91.65,13.55,13.55,0,0,0-3.28-.34,1.65,1.65,0,0,1-1.32-.65l-5-7.58a.92.92,0,0,0-1.21-.29L405.7,272a.9.9,0,0,0-.36,1.18l4.05,8.16a1.66,1.66,0,0,1-.1,1.47,13.81,13.81,0,0,0-1.35,3,.72.72,0,0,1-1,.47l-6.07-2.74a.52.52,0,0,0-.78.51V292A1.85,1.85,0,0,0,400.78,293.29Zm14.45,3.47c0-7.35,5.16-10.33,11.52-6.65s11.52,12.6,11.52,19.95-5.16,10.33-11.52,6.65S415.23,304.11,415.23,296.76Z" style="fill:#7979CC"></path><path d="M400.78,293.29l6.23,4.39a2.53,2.53,0,0,1,.87,1.32,42.46,42.46,0,0,0,1.58,5.29,1.31,1.31,0,0,1-.34,1.35l-3.51,3a1.07,1.07,0,0,0-.22,1.3l5,8.68a1.08,1.08,0,0,0,1.23.46l4.38-1.53a1.3,1.3,0,0,1,1.34.38,41.3,41.3,0,0,0,3.79,4,2.57,2.57,0,0,1,.71,1.41l.68,7.59a1.83,1.83,0,0,0,.81,1.27l6.82,3.94a.5.5,0,0,0,.82-.42l.67-6.62a.73.73,0,0,1,.91-.65,13.55,13.55,0,0,0,3.28.34,1.68,1.68,0,0,1,1.32.65l5,7.59a.92.92,0,0,0,1.2.28l4.39-2.54a.9.9,0,0,0,.36-1.18l-4-8.16a1.66,1.66,0,0,1,.09-1.47,13.81,13.81,0,0,0,1.35-3,.72.72,0,0,1,1-.47l6.07,2.74a.52.52,0,0,0,.78-.51v-7.87a1.82,1.82,0,0,0-.7-1.34l-6.23-4.39a2.53,2.53,0,0,1-.87-1.32,40.23,40.23,0,0,0-1.58-5.28,1.34,1.34,0,0,1,.34-1.36l3.52-3a1.08,1.08,0,0,0,.22-1.29l-5-8.69a1.07,1.07,0,0,0-1.23-.46l-4.37,1.53a1.28,1.28,0,0,1-1.34-.38,43.88,43.88,0,0,0-3.79-4,2.45,2.45,0,0,1-.71-1.41l-.69-7.59a1.8,1.8,0,0,0-.81-1.27l-6.82-3.94a.51.51,0,0,0-.82.42l-.67,6.62a.72.72,0,0,1-.91.65,13.55,13.55,0,0,0-3.28-.34,1.65,1.65,0,0,1-1.32-.65l-5-7.58a.92.92,0,0,0-1.21-.29L405.7,272a.9.9,0,0,0-.36,1.18l4.05,8.16a1.66,1.66,0,0,1-.1,1.47,13.81,13.81,0,0,0-1.35,3,.72.72,0,0,1-1,.47l-6.07-2.74a.52.52,0,0,0-.78.51V292A1.85,1.85,0,0,0,400.78,293.29Zm14.45,3.47c0-7.35,5.16-10.33,11.52-6.65s11.52,12.6,11.52,19.95-5.16,10.33-11.52,6.65S415.23,304.11,415.23,296.76Z" style="fill:#fff;opacity:0.55"></path><g style="opacity:0.55"><path d="M410.54,269.94h0a.35.35,0,0,1,.28.15l5,7.58a2.25,2.25,0,0,0,1.77.91H418a13.51,13.51,0,0,1,2.84.32,1.65,1.65,0,0,0,.31,0,1.29,1.29,0,0,0,1.3-1.19l.66-6.58,6.78,3.92a1.27,1.27,0,0,1,.53.82l.68,7.59a3.14,3.14,0,0,0,.9,1.79,40.36,40.36,0,0,1,3.73,3.95,1.89,1.89,0,0,0,1.43.65,1.67,1.67,0,0,0,.55-.09l4.37-1.53.13,0a.49.49,0,0,1,.41.22l5,8.68a.52.52,0,0,1-.1.57l-3.51,3a1.87,1.87,0,0,0-.51,2,41.53,41.53,0,0,1,1.56,5.21,3.12,3.12,0,0,0,1.1,1.67l6.23,4.38a1.28,1.28,0,0,1,.45.87v7.83l-6-2.72a1.38,1.38,0,0,0-.56-.12,1.3,1.3,0,0,0-1.24.94,13.13,13.13,0,0,1-1.29,2.89,2.24,2.24,0,0,0-.12,2l4,8.15a.35.35,0,0,1-.13.43l-4.4,2.54a.37.37,0,0,1-.15,0,.33.33,0,0,1-.28-.15l-5.05-7.58a2.24,2.24,0,0,0-1.77-.91h-.34a13.6,13.6,0,0,1-2.85-.32,1.55,1.55,0,0,0-.31,0,1.3,1.3,0,0,0-1.3,1.19l-.66,6.58-6.78-3.92a1.31,1.31,0,0,1-.53-.82l-.68-7.59a3.12,3.12,0,0,0-.89-1.79,40.44,40.44,0,0,1-3.74-3.95,1.88,1.88,0,0,0-1.43-.65,1.61,1.61,0,0,0-.54.09l-4.38,1.53-.12,0a.51.51,0,0,1-.42-.22l-5-8.68a.49.49,0,0,1,.1-.57l3.51-3a1.88,1.88,0,0,0,.5-2,39.85,39.85,0,0,1-1.55-5.21,3.14,3.14,0,0,0-1.11-1.67l-6.23-4.38a1.28,1.28,0,0,1-.45-.87v-7.83l6,2.72a1.38,1.38,0,0,0,.56.12,1.3,1.3,0,0,0,1.24-.94,12.86,12.86,0,0,1,1.3-2.88,2.25,2.25,0,0,0,.12-2L405.86,273a.35.35,0,0,1,.13-.43l4.39-2.54a.42.42,0,0,1,.16,0m21.36,48.93c4.22,0,7-3.46,7-8.81,0-7.52-5.3-16.69-11.81-20.45a10.91,10.91,0,0,0-5.43-1.65,6.26,6.26,0,0,0-5.06,2.37,10.23,10.23,0,0,0-1.9,6.43c0,7.52,5.3,16.69,11.81,20.45a11,11,0,0,0,5.44,1.66m-21.36-49.51a.89.89,0,0,0-.45.12L405.7,272a.9.9,0,0,0-.36,1.18l4.05,8.16a1.66,1.66,0,0,1-.1,1.47,13.81,13.81,0,0,0-1.35,3,.72.72,0,0,1-.69.54.77.77,0,0,1-.32-.07l-6.07-2.74a.79.79,0,0,0-.29-.06c-.29,0-.49.21-.49.57V292a1.85,1.85,0,0,0,.7,1.34l6.23,4.39a2.53,2.53,0,0,1,.87,1.32,42.46,42.46,0,0,0,1.58,5.29,1.31,1.31,0,0,1-.34,1.35l-3.51,3a1.07,1.07,0,0,0-.22,1.3l5,8.68a1.08,1.08,0,0,0,.92.51,1.12,1.12,0,0,0,.31,0l4.38-1.53a1,1,0,0,1,.35-.06,1.35,1.35,0,0,1,1,.44,41.3,41.3,0,0,0,3.79,4,2.57,2.57,0,0,1,.71,1.41l.68,7.59a1.8,1.8,0,0,0,.81,1.27l6.82,3.94a.69.69,0,0,0,.34.1c.26,0,.45-.19.48-.52l.67-6.62a.71.71,0,0,1,.72-.67l.19,0a13.61,13.61,0,0,0,3,.34h.34a1.67,1.67,0,0,1,1.29.65l5,7.59a.93.93,0,0,0,.76.4.86.86,0,0,0,.44-.12l4.39-2.54a.9.9,0,0,0,.36-1.18l-4-8.16a1.66,1.66,0,0,1,.09-1.47,13.81,13.81,0,0,0,1.35-3,.73.73,0,0,1,.69-.54.71.71,0,0,1,.32.07l6.07,2.74a.89.89,0,0,0,.3.06c.28,0,.48-.21.48-.57v-7.87a1.82,1.82,0,0,0-.7-1.34l-6.23-4.39a2.53,2.53,0,0,1-.87-1.32,40.23,40.23,0,0,0-1.58-5.28,1.34,1.34,0,0,1,.34-1.36l3.52-3a1.08,1.08,0,0,0,.22-1.29l-5-8.69a1.08,1.08,0,0,0-.91-.51,1.13,1.13,0,0,0-.32.05l-4.37,1.53a1.13,1.13,0,0,1-.36.06,1.27,1.27,0,0,1-1-.44,43.88,43.88,0,0,0-3.79-4,2.45,2.45,0,0,1-.71-1.41l-.69-7.59a1.8,1.8,0,0,0-.81-1.27l-6.82-3.94a.66.66,0,0,0-.34-.1.5.5,0,0,0-.48.52l-.67,6.62a.71.71,0,0,1-.72.67l-.19,0a13.45,13.45,0,0,0-3-.34h-.35a1.7,1.7,0,0,1-1.29-.65l-5-7.58a.92.92,0,0,0-.76-.41Zm21.36,48.93a10.45,10.45,0,0,1-5.15-1.58c-6.36-3.67-11.52-12.6-11.52-19.95,0-5.21,2.6-8.23,6.38-8.23a10.42,10.42,0,0,1,5.14,1.58c6.36,3.67,11.52,12.6,11.52,19.95,0,5.21-2.59,8.23-6.37,8.23Z" style="fill:#fff"></path></g></g><g id="freepik--gear--inject-22"><path d="M448.65,268.64A1.19,1.19,0,0,1,448,270l-1.89.8a.94.94,0,0,0-.49,1.25l2.2,4.93a1.49,1.49,0,0,0,1.34.82l2.34-.11a1.85,1.85,0,0,1,1.48.75c.53.77,1.1,1.52,1.69,2.24a2.72,2.72,0,0,1,.57,1.67l-.22,3.46a2.08,2.08,0,0,0,.69,1.55l3.64,2.86a.65.65,0,0,0,.7.11h0l0,0h0l3.8-2.19h0a.72.72,0,0,0,.31-.43l.1-.34a2.19,2.19,0,0,1,.91.84l2.29,4.35a1.3,1.3,0,0,0,1.37.63l2.43-.54a.83.83,0,0,0,.27-.12h0l3.84-2.21h0a.79.79,0,0,0,.32-1l-1.34-3.62,1.39.91a.6.6,0,0,0,.66.06h0l3.84-2.22h0a.69.69,0,0,0,.29-.48l.6-3.52a1.92,1.92,0,0,0-.54-1.58l-3.22-3a2.93,2.93,0,0,1-.79-1.6,22.64,22.64,0,0,0-.4-2.35,1,1,0,0,1,.06-.67l2.59-1.49h0a.92.92,0,0,0,.37-1.18l-2.2-4.93a1.47,1.47,0,0,0-1.34-.83l-2.34.12a1.91,1.91,0,0,1-1.48-.75,26.79,26.79,0,0,0-1.69-2.24,2.77,2.77,0,0,1-.57-1.68l.22-3.46a2,2,0,0,0-.69-1.54l-3.64-2.86a.62.62,0,0,0-.72-.1h0L461,252.49h0a.78.78,0,0,0-.31.42l-.1.35a2.19,2.19,0,0,1-.91-.84l-2.28-4.35a1.33,1.33,0,0,0-1.38-.64l-2.43.54a1.12,1.12,0,0,0-.25.11h0l-3.82,2.21h0a.8.8,0,0,0-.37,1l1.34,3.62-1.38-.91a.62.62,0,0,0-.67-.06h0l-3.82,2.2h0a.65.65,0,0,0-.3.48l-.61,3.52a2,2,0,0,0,.54,1.59l3.22,3a3,3,0,0,1,.79,1.6A22.27,22.27,0,0,0,448.65,268.64Zm18.54,9.87a7.9,7.9,0,0,1-4.13-1.84c-3.94-3.1-6.56-9-5.85-13.12a5.92,5.92,0,0,1,.46-1.52,7.87,7.87,0,0,1,4.14,1.85c3.95,3.1,6.57,9,5.85,13.11A5.78,5.78,0,0,1,467.19,278.51Z" style="fill:#7979CC"></path><path d="M448.65,268.64A1.19,1.19,0,0,1,448,270l-1.89.8a.94.94,0,0,0-.49,1.25l2.2,4.93a1.49,1.49,0,0,0,1.34.82l2.34-.11a1.85,1.85,0,0,1,1.48.75c.53.77,1.1,1.52,1.69,2.24a2.72,2.72,0,0,1,.57,1.67l-.22,3.46a2.08,2.08,0,0,0,.69,1.55l3.64,2.86a.65.65,0,0,0,.7.11h0l0,0h0l3.8-2.19h0a.72.72,0,0,0,.31-.43l.1-.34a2.19,2.19,0,0,1,.91.84l2.29,4.35a1.3,1.3,0,0,0,1.37.63l2.43-.54a.83.83,0,0,0,.27-.12h0l3.84-2.21h0a.79.79,0,0,0,.32-1l-1.34-3.62,1.39.91a.6.6,0,0,0,.66.06h0l3.84-2.22h0a.69.69,0,0,0,.29-.48l.6-3.52a1.92,1.92,0,0,0-.54-1.58l-3.22-3a2.93,2.93,0,0,1-.79-1.6,22.64,22.64,0,0,0-.4-2.35,1,1,0,0,1,.06-.67l2.59-1.49h0a.92.92,0,0,0,.37-1.18l-2.2-4.93a1.47,1.47,0,0,0-1.34-.83l-2.34.12a1.91,1.91,0,0,1-1.48-.75,26.79,26.79,0,0,0-1.69-2.24,2.77,2.77,0,0,1-.57-1.68l.22-3.46a2,2,0,0,0-.69-1.54l-3.64-2.86a.62.62,0,0,0-.72-.1h0L461,252.49h0a.78.78,0,0,0-.31.42l-.1.35a2.19,2.19,0,0,1-.91-.84l-2.28-4.35a1.33,1.33,0,0,0-1.38-.64l-2.43.54a1.12,1.12,0,0,0-.25.11h0l-3.82,2.21h0a.8.8,0,0,0-.37,1l1.34,3.62-1.38-.91a.62.62,0,0,0-.67-.06h0l-3.82,2.2h0a.65.65,0,0,0-.3.48l-.61,3.52a2,2,0,0,0,.54,1.59l3.22,3a3,3,0,0,1,.79,1.6A22.27,22.27,0,0,0,448.65,268.64Zm18.54,9.87a7.9,7.9,0,0,1-4.13-1.84c-3.94-3.1-6.56-9-5.85-13.12a5.92,5.92,0,0,1,.46-1.52,7.87,7.87,0,0,1,4.14,1.85c3.95,3.1,6.57,9,5.85,13.11A5.78,5.78,0,0,1,467.19,278.51Z" style="fill:#fff;opacity:0.2"></path><path d="M470.64,285.49a1.6,1.6,0,0,0-.37,1.53l1.64,4.45a.79.79,0,0,1-.28,1l3.79-2.19a.79.79,0,0,0,.32-1l-1.33-3.62-1.84-1.21a.94.94,0,0,0-1.3.29A5.87,5.87,0,0,1,470.64,285.49Zm-6.74,2.57h0a.78.78,0,0,0,.31-.42l.11-.36a2.08,2.08,0,0,0-.48-.19,10,10,0,0,1-1.49-.5.83.83,0,0,0-1.15.53l-.82,2.72a.69.69,0,0,1-.31.43Z" style="opacity:0.1"></path><path d="M459.23,278.88c3.4,2.67,6.68,2.42,8-.37a8,8,0,0,1-4.13-1.84c-3.94-3.1-6.56-9-5.85-13.12a6,6,0,0,1,.46-1.52c-2.17-.18-3.84,1.12-4.29,3.73C452.66,269.91,455.29,275.77,459.23,278.88Z" style="opacity:0.1"></path><path d="M468.87,265a1.47,1.47,0,0,0,.67.12l2.34-.11a1.56,1.56,0,0,1,1,.35l3.83-2.2a1.46,1.46,0,0,0-1-.36l-2.34.12a1.7,1.7,0,0,1-.67-.15Zm-7.9-12.5h0a.64.64,0,0,1,.72.1l3.64,2.86a1.9,1.9,0,0,1,.6.95l3.83-2.21a2,2,0,0,0-.6-.95l-3.64-2.87a.63.63,0,0,0-.72-.09Zm12.65,25.61,3.19,2.93a1.81,1.81,0,0,1,.5.9l3.83-2.2a1.84,1.84,0,0,0-.5-.91l-3.18-2.93Zm-24.13-27.82a.85.85,0,0,1,.24-.09l2.43-.55a1.32,1.32,0,0,1,1.38.64l2.28,4.35a1.88,1.88,0,0,0,.52.58l3.83-2.21a1.88,1.88,0,0,1-.52-.58l-2.28-4.35a1.33,1.33,0,0,0-1.38-.64l-2.42.55a.59.59,0,0,0-.26.1Zm-4.89,5.85.15-.05a.51.51,0,0,1,.27,0,1.22,1.22,0,0,1,.24.11l3.22,2.12a1,1,0,0,0,.23.11.9.9,0,0,0,.43,0,.8.8,0,0,0,.32-.13l.15-.1.16-.19a6,6,0,0,1,.63-.77,1.62,1.62,0,0,0,.38-1.54l-.31-.82-1.38-.91a.62.62,0,0,0-.67-.06h0Z" style="fill:#7979CC"></path><path d="M468.87,265a1.47,1.47,0,0,0,.67.12l2.34-.11a1.56,1.56,0,0,1,1,.35l3.83-2.2a1.46,1.46,0,0,0-1-.36l-2.34.12a1.7,1.7,0,0,1-.67-.15Zm-7.9-12.5h0a.64.64,0,0,1,.72.1l3.64,2.86a1.9,1.9,0,0,1,.6.95l3.83-2.21a2,2,0,0,0-.6-.95l-3.64-2.87a.63.63,0,0,0-.72-.09Zm12.65,25.61,3.19,2.93a1.81,1.81,0,0,1,.5.9l3.83-2.2a1.84,1.84,0,0,0-.5-.91l-3.18-2.93Zm-24.13-27.82a.85.85,0,0,1,.24-.09l2.43-.55a1.32,1.32,0,0,1,1.38.64l2.28,4.35a1.88,1.88,0,0,0,.52.58l3.83-2.21a1.88,1.88,0,0,1-.52-.58l-2.28-4.35a1.33,1.33,0,0,0-1.38-.64l-2.42.55a.59.59,0,0,0-.26.1Zm-4.89,5.85.15-.05a.51.51,0,0,1,.27,0,1.22,1.22,0,0,1,.24.11l3.22,2.12a1,1,0,0,0,.23.11.9.9,0,0,0,.43,0,.8.8,0,0,0,.32-.13l.15-.1.16-.19a6,6,0,0,1,.63-.77,1.62,1.62,0,0,0,.38-1.54l-.31-.82-1.38-.91a.62.62,0,0,0-.67-.06h0Z" style="fill:#fff;opacity:0.7000000000000001"></path><path d="M444.23,261.73l3.22,3a3,3,0,0,1,.79,1.6,22.27,22.27,0,0,0,.41,2.35A1.19,1.19,0,0,1,448,270l-1.89.8a.93.93,0,0,0-.49,1.25l2.2,4.93a1.49,1.49,0,0,0,1.34.82l2.34-.11a1.85,1.85,0,0,1,1.48.75c.53.77,1.1,1.52,1.69,2.24a2.72,2.72,0,0,1,.57,1.67l-.22,3.46a2.08,2.08,0,0,0,.69,1.55l3.64,2.86a.61.61,0,0,0,1-.33l.82-2.72a.83.83,0,0,1,1.15-.53,11.34,11.34,0,0,0,1.49.5,2.37,2.37,0,0,1,1.38,1l2.29,4.35a1.3,1.3,0,0,0,1.37.63l2.43-.54a.81.81,0,0,0,.6-1.1L470.27,287a1.58,1.58,0,0,1,.37-1.53,5.87,5.87,0,0,0,.63-.77.94.94,0,0,1,1.3-.29l3.22,2.12a.58.58,0,0,0,1-.42l.6-3.52a1.92,1.92,0,0,0-.54-1.58l-3.22-3a2.9,2.9,0,0,1-.79-1.6,22.73,22.73,0,0,0-.41-2.35,1.19,1.19,0,0,1,.65-1.3l1.89-.81a.92.92,0,0,0,.49-1.24l-2.2-4.93a1.49,1.49,0,0,0-1.34-.83l-2.34.12a1.91,1.91,0,0,1-1.48-.75,26.79,26.79,0,0,0-1.69-2.24,2.77,2.77,0,0,1-.57-1.68L466,257a2,2,0,0,0-.69-1.54l-3.64-2.86a.61.61,0,0,0-1,.32l-.82,2.73a.82.82,0,0,1-1.14.52,11.89,11.89,0,0,0-1.5-.49,2.41,2.41,0,0,1-1.38-1l-2.28-4.35a1.33,1.33,0,0,0-1.38-.64l-2.43.55a.81.81,0,0,0-.6,1.1l1.65,4.44a1.62,1.62,0,0,1-.38,1.54,5.28,5.28,0,0,0-.63.77.93.93,0,0,1-1.29.29l-3.22-2.12a.57.57,0,0,0-1,.41l-.61,3.52A2,2,0,0,0,444.23,261.73Zm9.15,4c.71-4.14,4.49-5,8.43-1.88s6.57,9,5.85,13.11-4.49,5-8.43,1.89S452.67,269.91,453.38,265.76Z" style="fill:#7979CC"></path><path d="M444.23,261.73l3.22,3a3,3,0,0,1,.79,1.6,22.27,22.27,0,0,0,.41,2.35A1.19,1.19,0,0,1,448,270l-1.89.8a.93.93,0,0,0-.49,1.25l2.2,4.93a1.49,1.49,0,0,0,1.34.82l2.34-.11a1.85,1.85,0,0,1,1.48.75c.53.77,1.1,1.52,1.69,2.24a2.72,2.72,0,0,1,.57,1.67l-.22,3.46a2.08,2.08,0,0,0,.69,1.55l3.64,2.86a.61.61,0,0,0,1-.33l.82-2.72a.83.83,0,0,1,1.15-.53,11.34,11.34,0,0,0,1.49.5,2.37,2.37,0,0,1,1.38,1l2.29,4.35a1.3,1.3,0,0,0,1.37.63l2.43-.54a.81.81,0,0,0,.6-1.1L470.27,287a1.58,1.58,0,0,1,.37-1.53,5.87,5.87,0,0,0,.63-.77.94.94,0,0,1,1.3-.29l3.22,2.12a.58.58,0,0,0,1-.42l.6-3.52a1.92,1.92,0,0,0-.54-1.58l-3.22-3a2.9,2.9,0,0,1-.79-1.6,22.73,22.73,0,0,0-.41-2.35,1.19,1.19,0,0,1,.65-1.3l1.89-.81a.92.92,0,0,0,.49-1.24l-2.2-4.93a1.49,1.49,0,0,0-1.34-.83l-2.34.12a1.91,1.91,0,0,1-1.48-.75,26.79,26.79,0,0,0-1.69-2.24,2.77,2.77,0,0,1-.57-1.68L466,257a2,2,0,0,0-.69-1.54l-3.64-2.86a.61.61,0,0,0-1,.32l-.82,2.73a.82.82,0,0,1-1.14.52,11.89,11.89,0,0,0-1.5-.49,2.41,2.41,0,0,1-1.38-1l-2.28-4.35a1.33,1.33,0,0,0-1.38-.64l-2.43.55a.81.81,0,0,0-.6,1.1l1.65,4.44a1.62,1.62,0,0,1-.38,1.54,5.28,5.28,0,0,0-.63.77.93.93,0,0,1-1.29.29l-3.22-2.12a.57.57,0,0,0-1,.41l-.61,3.52A2,2,0,0,0,444.23,261.73Zm9.15,4c.71-4.14,4.49-5,8.43-1.88s6.57,9,5.85,13.11-4.49,5-8.43,1.89S452.67,269.91,453.38,265.76Z" style="fill:#fff;opacity:0.55"></path><g style="opacity:0.55"><path d="M452.4,250.2a.73.73,0,0,1,.62.35l2.29,4.35a2.92,2.92,0,0,0,1.75,1.33,12.4,12.4,0,0,1,1.42.47,1.46,1.46,0,0,0,.58.11,1.38,1.38,0,0,0,1.34-1l.82-2.72a.26.26,0,0,1,0-.09l.07,0L465,255.9a1.51,1.51,0,0,1,.47,1.06l-.21,3.46a3.25,3.25,0,0,0,.7,2.08c.57.69,1.13,1.43,1.65,2.19a2.46,2.46,0,0,0,1.9,1h.09l2.34-.12h0a.94.94,0,0,1,.78.48l2.2,4.93a.34.34,0,0,1,0,.28.37.37,0,0,1-.19.2l-1.89.81a1.74,1.74,0,0,0-1,2,19.59,19.59,0,0,1,.39,2.29,3.53,3.53,0,0,0,1,2l3.22,3a1.4,1.4,0,0,1,.36,1.07l-.6,3.51s0,.05,0,.06l-.05,0-3.23-2.12a1.44,1.44,0,0,0-.8-.24,1.58,1.58,0,0,0-1.28.69,6.53,6.53,0,0,1-.58.7,2.18,2.18,0,0,0-.5,2.13l1.65,4.45a.25.25,0,0,1,0,.21.22.22,0,0,1-.18.12l-2.43.55h-.11a.76.76,0,0,1-.62-.35l-2.28-4.35a3,3,0,0,0-1.75-1.33,11.93,11.93,0,0,1-1.43-.47,1.42,1.42,0,0,0-.57-.12,1.4,1.4,0,0,0-1.35,1l-.82,2.73a.19.19,0,0,1,0,.08l-.07-.05-3.64-2.86a1.51,1.51,0,0,1-.47-1.05l.22-3.46a3.35,3.35,0,0,0-.7-2.09,26.2,26.2,0,0,1-1.66-2.19,2.48,2.48,0,0,0-1.9-1h-.09l-2.34.12h0a.93.93,0,0,1-.78-.49l-2.2-4.93a.39.39,0,0,1,0-.28.34.34,0,0,1,.2-.19l1.89-.81a1.76,1.76,0,0,0,1-2,21.33,21.33,0,0,1-.39-2.28,3.55,3.55,0,0,0-1-2l-3.23-3a1.42,1.42,0,0,1-.36-1.06l.61-3.52s0,0,0-.06l.06,0,3.22,2.12a1.46,1.46,0,0,0,.81.25,1.59,1.59,0,0,0,1.28-.69,4.84,4.84,0,0,1,.57-.7,2.18,2.18,0,0,0,.5-2.14l-1.64-4.44a.28.28,0,0,1,0-.22.27.27,0,0,1,.18-.12l2.43-.54h.11m11.36,31.13c2.35,0,4-1.59,4.47-4.24.75-4.32-2-10.45-6.06-13.67a8.18,8.18,0,0,0-4.89-2c-2.34,0-4,1.58-4.47,4.24-.75,4.32,2,10.45,6.06,13.66a8.13,8.13,0,0,0,4.89,2M452.4,249.62a1,1,0,0,0-.24,0l-2.43.55a.81.81,0,0,0-.6,1.1l1.65,4.44a1.62,1.62,0,0,1-.38,1.54,5.28,5.28,0,0,0-.63.77,1,1,0,0,1-.8.44.88.88,0,0,1-.49-.15l-3.22-2.12a.84.84,0,0,0-.41-.14c-.28,0-.49.2-.55.55l-.61,3.52a2,2,0,0,0,.54,1.59l3.22,3a3,3,0,0,1,.79,1.6,22.27,22.27,0,0,0,.41,2.35A1.19,1.19,0,0,1,448,270l-1.89.8a.93.93,0,0,0-.49,1.25l2.2,4.93a1.51,1.51,0,0,0,1.29.83h.05l2.34-.11h.06a1.87,1.87,0,0,1,1.42.75c.53.77,1.1,1.52,1.69,2.24a2.72,2.72,0,0,1,.57,1.67l-.22,3.46a2.08,2.08,0,0,0,.69,1.55l3.64,2.86a.73.73,0,0,0,.45.17.61.61,0,0,0,.58-.5l.82-2.72a.81.81,0,0,1,.79-.6,1.21,1.21,0,0,1,.36.07,11.34,11.34,0,0,0,1.49.5,2.37,2.37,0,0,1,1.38,1l2.29,4.35a1.32,1.32,0,0,0,1.13.66l.24,0,2.43-.54a.81.81,0,0,0,.6-1.1L470.27,287a1.58,1.58,0,0,1,.37-1.53,5.87,5.87,0,0,0,.63-.77,1,1,0,0,1,.81-.44.93.93,0,0,1,.49.15l3.22,2.12a.76.76,0,0,0,.41.13.58.58,0,0,0,.55-.55l.6-3.52a1.92,1.92,0,0,0-.54-1.58l-3.22-3a2.9,2.9,0,0,1-.79-1.6,22.73,22.73,0,0,0-.41-2.35,1.19,1.19,0,0,1,.65-1.3l1.89-.81a.92.92,0,0,0,.49-1.24l-2.2-4.93a1.49,1.49,0,0,0-1.29-.83h-.05l-2.34.12h-.06a1.9,1.9,0,0,1-1.42-.75,26.79,26.79,0,0,0-1.69-2.24,2.77,2.77,0,0,1-.57-1.68L466,257a2,2,0,0,0-.69-1.54l-3.64-2.86a.72.72,0,0,0-.45-.18.63.63,0,0,0-.58.5l-.82,2.73a.8.8,0,0,1-.78.59.92.92,0,0,1-.36-.07,11.89,11.89,0,0,0-1.5-.49,2.41,2.41,0,0,1-1.38-1l-2.28-4.35a1.33,1.33,0,0,0-1.14-.66Zm11.36,31.13a7.6,7.6,0,0,1-4.53-1.87c-3.94-3.1-6.56-9-5.85-13.12.42-2.45,1.93-3.75,3.9-3.75a7.6,7.6,0,0,1,4.53,1.87c3.95,3.1,6.57,9,5.85,13.11-.42,2.46-1.92,3.76-3.9,3.76Z" style="fill:#fff"></path></g></g></g><g id="freepik--window--inject-22"><g id="freepik--window--inject-22"><path d="M79.71,257.17v59.56a4.9,4.9,0,0,1-2.21,3.84L27.9,349.22a1.36,1.36,0,0,1-1,.18l-.19-.07-.2-.1a2,2,0,0,1-.58-.74,2.69,2.69,0,0,1-.23-1.12v-59a4.9,4.9,0,0,1,2.21-3.84l49.6-28.62A1.6,1.6,0,0,1,79,255.7l.19.11v0a.66.66,0,0,1,.15.14l.06.08a.29.29,0,0,1,.07.12.72.72,0,0,1,.13.28.42.42,0,0,1,.05.2s0,0,0,0a1.42,1.42,0,0,1,0,.2A2.53,2.53,0,0,1,79.71,257.17Z" style="fill:#fafafa"></path><path d="M78.48,256.38a.43.43,0,0,1,.17,0l0,0h0l.05.07h0l0,.07h0l.07.24v0l0,0h0a.07.07,0,0,0,0,0c0,.06,0,.14,0,.21v59.56a4.09,4.09,0,0,1-1.83,3.15L27.51,348.54a.63.63,0,0,1-.34.11h0l-.12,0,0,0h0l-.09,0a1.65,1.65,0,0,1-.29-.43,2,2,0,0,1-.15-.76v-59a4.18,4.18,0,0,1,1.83-3.16l49.59-28.62a1.22,1.22,0,0,1,.59-.19m0-.79a2,2,0,0,0-1,.3L27.9,284.51a4.9,4.9,0,0,0-2.21,3.84v59a2.69,2.69,0,0,0,.23,1.12,2,2,0,0,0,.58.74l.2.1.19.07a1.33,1.33,0,0,0,.28,0h0a1.41,1.41,0,0,0,.7-.21l49.6-28.65a4.9,4.9,0,0,0,2.21-3.84V257.17a2.53,2.53,0,0,0,0-.28,1.42,1.42,0,0,0,0-.2s0,0,0,0a.42.42,0,0,0-.05-.2.72.72,0,0,0-.13-.28.29.29,0,0,0-.07-.12l-.06-.08a.66.66,0,0,0-.15-.14v0L79,255.7a1.26,1.26,0,0,0-.51-.11Z" style="fill:#e0e0e0"></path><path d="M79,255.7a1.6,1.6,0,0,0-1.49.19L27.9,284.51a4.9,4.9,0,0,0-2.21,3.84v7.23L20,292.31v-7.19a4.89,4.89,0,0,1,2.2-3.83l49.61-28.62a1.55,1.55,0,0,1,1.6-.13C73.82,252.78,78.51,255.46,79,255.7Z" style="fill:#37474f"></path><path d="M79.71,257.15c0-1.39-1-2-2.21-1.26L27.9,284.51a4.9,4.9,0,0,0-2.21,3.83v7.24l54-31.16Z" style="fill:#455a64"></path><path d="M20,292.31v-7.19a4.55,4.55,0,0,1,.68-2.21l5.67,3.24a4.45,4.45,0,0,0-.66,2.2v7.23Z" style="fill:#263238"></path><path d="M67.15,264.92a3.31,3.31,0,0,0-1.25,2.65c0,1.06.56,1.6,1.25,1.2a3.28,3.28,0,0,0,1.25-2.64C68.4,265.06,67.84,264.53,67.15,264.92Z" style="fill:#fafafa"></path><path d="M71.65,262.32A3.3,3.3,0,0,0,70.4,265c0,1.06.56,1.6,1.25,1.2a3.3,3.3,0,0,0,1.25-2.65C72.9,262.46,72.34,261.92,71.65,262.32Z" style="fill:#fafafa"></path><path d="M76.15,259.72a3.29,3.29,0,0,0-1.25,2.64c0,1.07.56,1.61,1.25,1.21a3.29,3.29,0,0,0,1.26-2.65C77.41,259.86,76.85,259.32,76.15,259.72Z" style="fill:#fafafa"></path><path d="M26.5,349.23l-.27-.16-5.29-3a1.91,1.91,0,0,1-.68-.76A2.72,2.72,0,0,1,20,344.1V292.31l5.68,3.27v51.79a2.89,2.89,0,0,0,.23,1.12A2,2,0,0,0,26.5,349.23Z" style="fill:#e0e0e0"></path><path d="M31.91,319.09l21.68-12.53a1.7,1.7,0,0,0,.8-1.32c0-.47-.36-.65-.8-.4L31.91,317.37a1.7,1.7,0,0,0-.8,1.32C31.11,319.17,31.47,319.35,31.91,319.09Zm0,6.88L72.4,302.63a1.7,1.7,0,0,0,.8-1.32c0-.47-.36-.65-.8-.4L31.91,324.24a1.73,1.73,0,0,0-.8,1.32C31.11,326,31.47,326.22,31.91,326Zm0-26.14L72.4,276.41a1.71,1.71,0,0,0,.8-1.32c0-.48-.36-.66-.8-.4L31.91,298.11a1.73,1.73,0,0,0-.8,1.32C31.11,299.91,31.47,300.09,31.91,299.83ZM72.4,294l-15.73,9.06a1.71,1.71,0,0,0-.79,1.32c0,.48.36.65.8.4l15.72-9.06a1.7,1.7,0,0,0,.8-1.32C73.2,293.93,72.84,293.75,72.4,294Zm0-6.9L31.91,310.52a1.73,1.73,0,0,0-.8,1.32c0,.48.36.66.8.41L72.4,288.82a1.7,1.7,0,0,0,.8-1.32C73.2,287,72.84,286.85,72.4,287.1ZM31.91,332.9l21.68-12.53a1.7,1.7,0,0,0,.8-1.32c0-.47-.36-.65-.8-.4L31.91,331.18a1.7,1.7,0,0,0-.8,1.32C31.11,333,31.47,333.16,31.91,332.9Zm0,6.88L72.4,316.44a1.7,1.7,0,0,0,.8-1.32c0-.47-.36-.65-.8-.4L31.91,338.06a1.7,1.7,0,0,0-.8,1.32C31.11,339.85,31.47,340,31.91,339.78Zm40.49-32-15.73,9.06a1.71,1.71,0,0,0-.79,1.32c0,.48.36.66.8.4l15.72-9.06a1.7,1.7,0,0,0,.8-1.32C73.2,307.74,72.84,307.56,72.4,307.81Zm0-26.92L31.91,304.32a1.7,1.7,0,0,0-.8,1.32c0,.47.36.65.8.4L72.4,282.61a1.7,1.7,0,0,0,.8-1.32C73.2,280.82,72.84,280.64,72.4,280.89Z" style="opacity:0.2"></path></g></g><g id="freepik--social-media-icons--inject-22"><g id="freepik--social-media-icon--inject-22"><path d="M60.09,355.07a2.11,2.11,0,0,0-2.15.19L33.3,369.49a6.62,6.62,0,0,0-3,5.2v28.22a2.13,2.13,0,0,0,.88,1.94l7,4a2.1,2.1,0,0,0,2.13-.2l24.58-14.19a6.64,6.64,0,0,0,3-5.2l0-28.25a2.11,2.11,0,0,0-.87-1.95C66.5,358.74,60.61,355.39,60.09,355.07Z" style="fill:#7979CC"></path><path d="M60.09,355.07a2.11,2.11,0,0,0-2.15.19L33.3,369.49a6.62,6.62,0,0,0-3,5.2v28.22a2.13,2.13,0,0,0,.88,1.94l7,4a2.1,2.1,0,0,0,2.13-.2l24.58-14.19a6.64,6.64,0,0,0,3-5.2l0-28.25a2.11,2.11,0,0,0-.87-1.95C66.5,358.74,60.61,355.39,60.09,355.07Z" style="fill:#fff;opacity:0.4"></path><path d="M60.08,355.06c.51.31,5.89,3.38,6.85,3.93a2.17,2.17,0,0,0-2,.27L40.27,373.49a6.14,6.14,0,0,0-2.11,2.23l-7-4a6.05,6.05,0,0,1,2.1-2.21l24.64-14.23A2.07,2.07,0,0,1,60.08,355.06Z" style="fill:#fff;opacity:0.7000000000000001"></path><path d="M67,359.05a.66.66,0,0,1,.17.12A2,2,0,0,0,67,359Z" style="fill:#fff;opacity:0.7000000000000001"></path><path d="M37.28,406.91V378.69a6.62,6.62,0,0,1,3-5.2l24.64-14.23c1.66-.95,3-.18,3,1.74l0,28.25a6.64,6.64,0,0,1-3,5.2L40.28,408.64C38.62,409.59,37.28,408.82,37.28,406.91Z" style="fill:#7979CC"></path><path d="M37.28,406.91V378.69a6.62,6.62,0,0,1,3-5.2l24.64-14.23c1.66-.95,3-.18,3,1.74l0,28.25a6.64,6.64,0,0,1-3,5.2L40.28,408.64C38.62,409.59,37.28,408.82,37.28,406.91Z" style="fill:#fff;opacity:0.55"></path><path d="M62.4,377.71c-.13-6.52-4.2-9.46-9.21-6.56s-9,10.35-9.2,17c0,.19,0,.37,0,.54a10.52,10.52,0,0,0,1.32,5.54l-1.66,7.5,5.1-5.11a6.89,6.89,0,0,0,4.45-1.05c5.09-2.94,9.21-10.78,9.21-17.51Zm-9.21,15.87a5.43,5.43,0,0,1-4.26.77l-3,3,1-4.37a8.14,8.14,0,0,1-1.47-5.15q0-.51,0-1c.38-5.41,3.7-11.38,7.71-13.7s7.41-.11,7.72,5q0,.38,0,.78C60.94,384.52,57.46,391.12,53.19,393.58Z" style="fill:#fff;fill-rule:evenodd"></path><path d="M57.41,383.36c-.23,0-1.33-.1-1.54-.08s-.36.06-.51.44-.59,1.31-.72,1.58-.26.38-.49.36a3.18,3.18,0,0,1-1.81-.43,4.15,4.15,0,0,1-1.26-1.34.68.68,0,0,1,.1-.67c.11-.2.23-.48.34-.72,0-.07.06-.13.08-.19s.09-.27.15-.44a.64.64,0,0,0,0-.51c-.06-.12-.51-1.33-.7-1.82s-.37-.28-.51-.2-.28.13-.43.22a1.64,1.64,0,0,0-.6.72,6.29,6.29,0,0,0-.79,3,4.51,4.51,0,0,0,.11.95,4,4,0,0,0,.81,1.61c.11.13,1.56,2.41,3.86,2.29s2.29-.54,2.71-.83a5.29,5.29,0,0,0,1.52-2.3,3.49,3.49,0,0,0,.13-1.49C57.79,383.37,57.64,383.38,57.41,383.36Z" style="fill:#fff;fill-rule:evenodd"></path></g><g id="freepik--social-media-icon--inject-22"><path d="M317.35,73a2.09,2.09,0,0,1,2.15.2l24.64,14.22a6.64,6.64,0,0,1,3,5.2v28.22a2.08,2.08,0,0,1-.88,1.94c-.54.31-6.43,3.68-7,4a2.13,2.13,0,0,1-2.13-.21l-24.58-14.19a6.65,6.65,0,0,1-3-5.2l-.05-28.25A2.1,2.1,0,0,1,310.4,77C310.94,76.66,316.83,73.31,317.35,73Z" style="fill:#7979CC"></path><path d="M317.35,73a2.09,2.09,0,0,1,2.15.2l24.64,14.22a6.64,6.64,0,0,1,3,5.2v28.22a2.08,2.08,0,0,1-.88,1.94c-.54.31-6.43,3.68-7,4a2.13,2.13,0,0,1-2.13-.21l-24.58-14.19a6.65,6.65,0,0,1-3-5.2l-.05-28.25A2.1,2.1,0,0,1,310.4,77C310.94,76.66,316.83,73.31,317.35,73Z" style="fill:#fff;opacity:0.4"></path><path d="M317.35,73l-6.84,3.92a2.17,2.17,0,0,1,2,.27l24.64,14.23a6.06,6.06,0,0,1,2.11,2.23l7-4a6.05,6.05,0,0,0-2.1-2.21L319.5,73.19A2.11,2.11,0,0,0,317.35,73Z" style="fill:#fff;opacity:0.7000000000000001"></path><path d="M340.16,124.83V96.61a6.64,6.64,0,0,0-3-5.2L312.52,77.19c-1.65-1-3-.18-3,1.73l.05,28.25a6.65,6.65,0,0,0,3,5.2l24.58,14.19C338.82,127.52,340.16,126.74,340.16,124.83Z" style="fill:#7979CC"></path><path d="M340.16,124.83V96.61a6.64,6.64,0,0,0-3-5.2L312.52,77.19c-1.65-1-3-.18-3,1.73l.05,28.25a6.65,6.65,0,0,0,3,5.2l24.58,14.19C338.82,127.52,340.16,126.74,340.16,124.83Z" style="fill:#fff;opacity:0.55"></path><path d="M330.34,110.94c1.65-1.9,2.48-5,2.36-8.48a4.21,4.21,0,0,0,1.94-1.56,5.56,5.56,0,0,1-2.23-.47,2.42,2.42,0,0,0,1.71-1.88,4.83,4.83,0,0,1-2.47-.17,7.92,7.92,0,0,0-2.83-3.27c-2.51-1.44-4.35.61-3.79,4.17-3.22-2.07-6.08-5.79-8-10-1,1.74-.53,5.07,1.2,7.61a6.84,6.84,0,0,1-1.76-1.66,9.73,9.73,0,0,0,3.12,6.94,4.11,4.11,0,0,1-1.75-.93,9,9,0,0,0,3.62,5.69c-1.63.77-3.69.34-5.75-1.17a19.33,19.33,0,0,0,6,5.76c3.84,2.22,6.79,1.62,8.67-.55" style="fill:#fff"></path></g><g id="freepik--social-media-icon--inject-22"><path d="M436,355.07a2.11,2.11,0,0,1,2.15.19l24.64,14.23a6.62,6.62,0,0,1,3,5.2v28.22a2.13,2.13,0,0,1-.88,1.94l-7,4a2.1,2.1,0,0,1-2.13-.2l-24.58-14.19a6.67,6.67,0,0,1-3-5.2L428.21,361a2.11,2.11,0,0,1,.87-1.95C429.62,358.74,435.51,355.39,436,355.07Z" style="fill:#263238"></path><path d="M436,355.06c-.51.31-5.89,3.38-6.85,3.93a2.17,2.17,0,0,1,2,.27l24.65,14.23a6.14,6.14,0,0,1,2.11,2.23l7-4a6.05,6.05,0,0,0-2.1-2.21l-24.64-14.23A2.07,2.07,0,0,0,436,355.06Z" style="fill:#455a64"></path><path d="M429.08,359.05a.66.66,0,0,0-.17.12,2,2,0,0,1,.24-.16Z" style="fill:#fff;opacity:0.7000000000000001"></path><path d="M458.84,406.91V378.69a6.62,6.62,0,0,0-3-5.2L431.2,359.26c-1.66-.95-3-.18-3,1.74l.05,28.25a6.67,6.67,0,0,0,3,5.2l24.58,14.19C457.5,409.59,458.84,408.82,458.84,406.91Z" style="fill:#37474f"></path><path d="M441.2,395l3.95,2.28V384.16l2.74,1.59.3-4.24-3-1.76v-2.51c0-1,.15-1.35.9-.92l2.14,1.23V373l-2.73-1.58c-2.93-1.69-4.26-.73-4.26,2.57v3.51l-2.05-1.18v4.46l2.05,1.18Z" style="fill:#fff"></path></g></g><g id="freepik--Notification--inject-22"><g id="freepik--notification--inject-22"><g id="freepik--Mails--inject-22"><g id="freepik--Letter--inject-22"><path d="M241.57,459.78,284.46,435a.91.91,0,0,0,.54-.94c-.06-.32.07-4.16,0-4.48a1.35,1.35,0,0,0-.78-1l-33.42-19.3a3.57,3.57,0,0,0-3.19-.13l-7.53,4.35,0,46.55A2.85,2.85,0,0,0,241.57,459.78Z" style="fill:#7979CC"></path><path d="M241.57,459.78,284.46,435a.91.91,0,0,0,.54-.94c-.06-.32.07-4.16,0-4.48a1.35,1.35,0,0,0-.78-1l-33.42-19.3a3.57,3.57,0,0,0-3.19-.13l-7.53,4.35,0,46.55A2.85,2.85,0,0,0,241.57,459.78Z" style="fill:#fff;opacity:0.7000000000000001"></path><path d="M204.21,434.8c0,.35-.05,4.24,0,4.56a1.36,1.36,0,0,0,.78,1l33.42,19.3a3.86,3.86,0,0,0,1.72.45l0-46.55L204.76,434A1,1,0,0,0,204.21,434.8Z" style="fill:#7979CC"></path><path d="M204.21,434.8c0,.35-.05,4.24,0,4.56a1.36,1.36,0,0,0,.78,1l33.42,19.3a3.86,3.86,0,0,0,1.72.45l0-46.55L204.76,434A1,1,0,0,0,204.21,434.8Z" style="fill:#fff;opacity:0.4"></path><path d="M204.76,434l42.89-24.76a3.57,3.57,0,0,1,3.19.13l33.42,19.3c.95.54,1.05,1.37.23,1.84l-42.88,24.76a3.57,3.57,0,0,1-3.19-.13L205,435.8C204.05,435.26,204,434.43,204.76,434Z" style="fill:#7979CC"></path><path d="M204.76,434l42.89-24.76a3.57,3.57,0,0,1,3.19.13l33.42,19.3c.95.54,1.05,1.37.23,1.84l-42.88,24.76a3.57,3.57,0,0,1-3.19-.13L205,435.8C204.05,435.26,204,434.43,204.76,434Z" style="fill:#fff;opacity:0.55"></path><path d="M284.21,428.53l-.66-.38-34.31.67.35-20-.34-.05-3,23.43c-.06.5-.66.84-1.52.88l-40.52,1.75a.82.82,0,0,0,.06.19l34.61-.2-1.14,19.81.65.38a4,4,0,0,0,1.74.49l.54-20.69,5.1,0c2,0,3.41-.81,3.43-2l.05-2.94,35.77-.32A1.39,1.39,0,0,0,284.21,428.53Z" style="fill:#7979CC;opacity:0.4"></path></g></g><g id="freepik--notification--inject-22"><path d="M269.21,405.69v4.07h0v0h0c0,1.76-1.18,3.52-3.52,4.87-4.69,2.71-12.31,2.71-17,0-2.34-1.35-3.51-3.13-3.52-4.9h0v-3.7l1.47,0a8.23,8.23,0,0,1,2-1.64c4.69-2.71,12.31-2.71,17,0a9.17,9.17,0,0,1,1.75,1.31Z" style="fill:#37474f"></path><path d="M251.32,415.82a14.32,14.32,0,0,1-2.64-1.15c-2.34-1.35-3.51-3.13-3.52-4.9h0v-3.7l1.47,0a8.23,8.23,0,0,1,2-1.64,12.85,12.85,0,0,1,2.64-1.15Z" style="fill:#263238"></path><path d="M265.7,410.8c-4.7,2.72-12.32,2.72-17,0s-4.7-7.1,0-9.82,12.31-2.71,17,0S270.39,408.09,265.7,410.8Z" style="fill:#455a64"></path><path d="M253.09,407.55l-1.81-.9c-2.06-1-2.28-2.59-.5-3.48h0a8.82,8.82,0,0,1,7,.25l1.61.8a8.27,8.27,0,0,0,3.7.76h0a2.29,2.29,0,0,1,.95.22h0c.52.26.58.65.13.87l-7.54,3.77a2.21,2.21,0,0,1-1.76-.06h0c-.26-.13-.4-.29-.42-.45h0C254.49,408.69,254.06,408,253.09,407.55Z" style="fill:#fff"></path><path d="M259.37,409a4.2,4.2,0,0,0,3.34.12c.86-.43.75-1.17-.24-1.67Z" style="fill:#fff"></path></g></g></g></svg>
